<?xml version="1.0" standalone="no"?>
<!DOCTYPE svg PUBLIC "-//W3C//DTD SVG 20010904//EN"
 "http://www.w3.org/TR/2001/REC-SVG-20010904/DTD/svg10.dtd">
<svg version="1.0" xmlns="http://www.w3.org/2000/svg"
 width="180.000000pt" height="96.000000pt" viewBox="0 0 180.000000 96.000000"
 preserveAspectRatio="xMidYMid meet">

<g transform="translate(0.000000,96.000000) scale(0.100000,-0.100000)"
fill="#000000" stroke="none">
<path d="M420 448 l0 -168 54 0 c38 0 61 6 77 19 23 18 24 27 27 143 4 154 -1
164 -95 170 l-63 4 0 -168z m90 2 c0 -91 -3 -110 -15 -110 -12 0 -15 19 -15
110 0 91 3 110 15 110 12 0 15 -19 15 -110z"/>
<path d="M610 448 l0 -168 70 0 70 0 0 29 c0 27 -3 30 -37 33 -34 3 -36 5 -37
41 -1 35 0 37 32 37 29 0 32 3 32 29 0 26 -4 30 -32 33 -28 3 -31 7 -32 36 -1
30 1 32 32 32 30 0 32 2 32 33 l0 32 -65 0 -65 0 0 -167z"/>
<path d="M67 603 c-4 -3 -7 -75 -7 -159 0 -130 2 -153 16 -158 25 -10 34 2 34
45 l0 39 85 0 c84 0 85 0 86 -25 3 -56 12 -65 65 -65 43 0 45 1 42 27 -2 22
-8 28 -28 28 l-25 0 -3 113 -3 112 31 0 c25 0 30 4 30 25 0 23 -3 25 -50 25
-46 0 -50 -2 -51 -25 -1 -14 -2 -31 -3 -37 -1 -9 -28 -14 -88 -16 l-88 -3 0
41 c0 32 -4 40 -18 40 -10 0 -22 -3 -25 -7z m223 -153 l0 -30 -90 0 -90 0 0
30 0 30 90 0 90 0 0 -30z"/>
<path d="M1330 586 c0 -14 5 -26 10 -26 6 0 10 -45 10 -115 l0 -115 -52 0 -51
0 23 -25 c21 -23 31 -26 80 -23 l55 3 3 37 3 37 52 3 c48 3 52 5 55 30 l3 27
122 3 c114 3 122 4 122 23 0 19 -8 20 -122 23 -122 3 -123 3 -123 26 0 28 -16
36 -70 36 -38 0 -39 1 -42 38 -3 35 -5 37 -40 40 -35 3 -38 1 -38 -22z m140
-142 c0 -20 -5 -24 -30 -24 -25 0 -30 4 -30 24 0 18 6 26 23 28 31 5 37 1 37
-28z"/>
</g>
</svg>
