<?xml version="1.0" standalone="no"?>
<!DOCTYPE svg PUBLIC "-//W3C//DTD SVG 20010904//EN"
 "http://www.w3.org/TR/2001/REC-SVG-20010904/DTD/svg10.dtd">
<svg version="1.0" xmlns="http://www.w3.org/2000/svg"
 width="757.000000pt" height="463.000000pt" viewBox="0 0 757.000000 463.000000"
 preserveAspectRatio="xMidYMid meet">

<g transform="translate(0.000000,463.000000) scale(0.100000,-0.100000)"
fill="#000000" stroke="none">
<path d="M3225 4227 c-94 -32 -158 -88 -197 -172 -32 -70 -31 -180 0 -251 46
-102 149 -172 268 -182 l62 -5 89 60 c170 113 383 151 533 94 25 -10 81 -41
124 -69 130 -86 239 -103 348 -54 158 70 229 259 155 414 -63 130 -205 199
-350 168 -37 -7 -85 -30 -144 -67 -48 -31 -109 -64 -135 -74 -113 -44 -268
-30 -382 36 -185 107 -279 132 -371 102z"/>
<path d="M3757 3329 c-136 -32 -226 -140 -235 -283 -11 -181 126 -326 308
-326 54 0 65 4 112 40 118 89 242 130 394 130 116 0 168 -16 279 -86 102 -65
155 -84 231 -84 117 0 221 67 275 175 29 60 31 70 27 147 -5 95 -26 146 -85
204 -58 59 -134 88 -223 88 -87 0 -119 -12 -232 -85 -112 -72 -146 -82 -263
-82 -120 0 -162 13 -293 91 -123 73 -204 92 -295 71z"/>
<path d="M2682 3284 c-61 -23 -145 -103 -173 -166 -18 -40 -23 -71 -23 -128
-1 -135 55 -215 205 -296 149 -80 231 -166 281 -297 17 -43 20 -74 19 -181 -2
-227 28 -323 122 -398 119 -94 256 -90 422 11 117 72 178 92 284 92 124 1 166
-13 303 -101 115 -75 224 -88 336 -40 61 26 125 92 155 158 49 109 16 266 -74
347 -111 100 -197 104 -619 29 -179 -31 -220 -35 -330 -32 -111 3 -131 6 -185
31 -67 31 -143 100 -181 165 -61 104 -94 234 -118 468 -19 191 -54 257 -168
319 -43 24 -67 29 -133 32 -54 2 -94 -2 -123 -13z"/>
<path d="M1837 1123 c-34 -68 -237 -519 -237 -527 0 -3 12 -6 26 -6 22 0 30
10 59 75 l34 75 164 0 163 0 31 -72 c28 -66 34 -73 62 -76 17 -2 31 -2 31 1 0
2 -58 131 -129 288 -117 258 -131 284 -154 287 -22 3 -30 -4 -50 -45z m113
-170 c34 -76 64 -144 67 -150 4 -10 -26 -13 -131 -13 -75 0 -136 3 -136 8 -1
13 125 292 131 292 4 0 35 -62 69 -137z"/>
<path d="M3592 1140 c-147 -74 -203 -252 -127 -405 50 -104 141 -156 269 -154
83 1 117 12 182 57 l47 33 -33 33 -32 34 -48 -33 c-58 -39 -112 -50 -168 -35
-88 23 -146 105 -146 205 0 175 170 266 318 169 l39 -26 30 31 c31 30 31 30
11 52 -39 43 -94 62 -189 67 -85 3 -93 2 -153 -28z"/>
<path d="M4267 1138 c-8 -18 -64 -147 -126 -286 -61 -140 -111 -256 -111 -258
0 -2 22 -4 48 -4 l48 0 31 70 31 70 137 0 136 0 31 -70 31 -70 48 0 c27 0 49
3 48 8 0 4 -55 133 -123 287 l-123 280 -46 3 c-44 3 -47 1 -60 -30z m109 -204
c24 -54 43 -105 44 -111 0 -10 -27 -13 -101 -13 -55 0 -99 3 -97 8 2 4 23 56
48 114 25 59 49 106 54 105 5 -2 29 -48 52 -103z"/>
<path d="M6094 1146 c-111 -52 -166 -132 -172 -253 -7 -124 43 -220 146 -280
38 -22 61 -28 133 -31 77 -4 94 -1 141 20 72 33 108 66 143 130 27 48 30 62
30 143 0 78 -4 97 -27 140 -34 64 -69 97 -138 129 -76 35 -183 36 -256 2z
m214 -83 c67 -31 112 -111 112 -198 -1 -117 -117 -219 -228 -199 -174 31 -233
253 -98 371 20 18 49 35 64 39 15 3 32 7 37 9 17 6 78 -7 113 -22z"/>
<path d="M480 875 l0 -285 210 0 210 0 0 25 0 25 -180 0 -180 0 0 105 0 105
158 0 157 0 0 25 0 25 -157 0 -158 0 0 105 0 105 175 0 175 0 0 25 0 25 -205
0 -205 0 0 -285z"/>
<path d="M1017 1148 c5 -7 53 -70 107 -140 l97 -127 -111 -146 -111 -145 34 0
c32 0 39 7 122 120 49 66 92 120 97 120 4 0 48 -54 98 -120 85 -112 93 -120
125 -120 l34 0 -110 145 -110 145 106 140 106 140 -35 0 c-32 0 -39 -7 -118
-115 -45 -63 -86 -115 -90 -115 -4 0 -47 52 -95 115 -81 107 -90 115 -122 115
-25 0 -31 -3 -24 -12z"/>
<path d="M2300 875 l0 -285 210 0 210 0 0 25 0 25 -180 0 -180 0 0 105 0 105
160 0 160 0 0 25 0 25 -160 0 -160 0 0 105 0 105 178 0 177 0 0 25 0 25 -207
0 -208 0 0 -285z"/>
<path d="M2860 875 l0 -285 30 0 30 0 0 110 0 110 88 0 88 0 80 -109 c76 -106
80 -110 117 -110 l37 -1 -85 113 c-47 63 -85 117 -85 120 0 4 7 7 15 7 26 0
93 38 110 62 60 87 27 205 -69 249 -34 16 -67 19 -198 19 l-158 0 0 -285z
m323 221 c52 -22 72 -51 72 -106 0 -94 -66 -130 -239 -130 l-96 0 0 125 0 125
115 0 c75 0 127 -5 148 -14z"/>
<path d="M4730 875 l0 -285 50 0 50 0 0 100 0 100 68 0 67 -1 68 -98 69 -99
59 -4 c32 -1 59 -2 59 -1 0 2 -34 50 -76 109 -42 58 -75 107 -73 108 2 2 21
11 42 21 95 44 123 184 55 270 -42 54 -85 65 -270 65 l-168 0 0 -285z m337
179 c55 -41 52 -122 -6 -161 -20 -14 -47 -18 -126 -18 l-100 0 -3 104 -3 103
105 -4 c87 -3 110 -7 133 -24z"/>
<path d="M5340 875 l0 -285 173 0 c159 0 176 2 217 23 110 55 122 184 24 247
l-43 27 29 28 c76 73 56 191 -40 229 -31 12 -76 16 -200 16 l-160 0 0 -285z
m305 191 c39 -17 54 -53 39 -95 -14 -40 -48 -51 -156 -51 l-98 0 0 73 c0 41 3
77 7 80 12 13 173 7 208 -7z m42 -252 c30 -22 39 -50 28 -91 -10 -40 -60 -54
-178 -51 l-102 3 -3 69 c-4 103 -9 99 118 94 91 -3 113 -7 137 -24z"/>
<path d="M6650 875 l0 -285 50 0 50 0 0 200 c0 110 3 200 8 199 4 0 76 -90
160 -200 l153 -199 45 0 44 0 0 285 0 285 -50 0 -50 0 0 -195 c0 -107 -3 -195
-7 -194 -5 0 -75 88 -157 195 l-148 194 -49 0 -49 0 0 -285z"/>
</g>
</svg>
