<?xml version="1.0" standalone="no"?>
<!DOCTYPE svg PUBLIC "-//W3C//DTD SVG 20010904//EN"
 "http://www.w3.org/TR/2001/REC-SVG-20010904/DTD/svg10.dtd">
<svg version="1.0" xmlns="http://www.w3.org/2000/svg"
 width="513.000000pt" height="700.000000pt" viewBox="0 0 513.000000 700.000000"
 preserveAspectRatio="xMidYMid meet">

<g transform="translate(0.000000,700.000000) scale(0.100000,-0.100000)"
fill="#000000" stroke="none">
<path d="M2 5178 c2 -2395 1 -2374 74 -2738 158 -795 594 -1447 1269 -1900
267 -178 627 -349 980 -463 248 -80 228 -80 451 -7 261 86 463 167 634 253
748 379 1274 965 1525 1697 76 223 136 485 165 720 15 123 29 1474 29 2968 l1
1292 -2565 0 -2565 0 2 -1822z m4927 65 c0 -1759 -9 -2394 -34 -2548 -91 -570
-268 -1005 -564 -1385 -93 -120 -297 -327 -426 -433 -317 -260 -676 -447
-1185 -618 l-156 -53 -149 48 c-475 152 -913 385 -1245 664 -470 394 -805 991
-915 1632 -50 291 -48 180 -52 2283 l-4 1967 2365 0 2366 0 -1 -1557z"/>
<path d="M3987 6554 c-278 -50 -487 -229 -575 -492 -24 -70 -26 -91 -25 -237
0 -131 4 -174 21 -238 34 -123 85 -211 177 -303 153 -153 315 -214 570 -214
133 1 231 18 347 60 114 41 140 62 134 103 -23 146 -40 227 -47 227 -5 0 -49
-18 -97 -40 -135 -60 -195 -73 -336 -68 -111 3 -126 6 -188 35 -155 73 -238
225 -238 436 0 154 36 253 127 348 78 82 149 112 278 117 134 5 201 -9 324
-68 57 -28 105 -49 106 -48 2 2 15 64 28 138 l26 135 -24 21 c-32 30 -168 74
-279 90 -113 17 -227 16 -329 -2z"/>
<path d="M2104 6551 c-2 -2 -4 -334 -4 -736 l0 -732 208 4 c396 7 557 25 660
75 66 32 157 121 189 186 25 52 28 67 28 167 0 92 -4 118 -22 157 -30 65 -92
129 -158 162 l-55 28 63 59 c89 81 122 154 114 254 -15 173 -85 263 -255 325
-42 15 -107 31 -143 35 -78 8 -619 22 -625 16z m539 -262 c108 -15 161 -65
160 -149 -1 -64 -27 -109 -84 -140 -38 -21 -60 -25 -166 -28 l-123 -4 0 164
c0 91 3 168 7 171 7 7 113 0 206 -14z m16 -569 c142 -20 207 -88 198 -204 -11
-125 -95 -172 -317 -178 l-105 -3 -3 190 c-1 104 0 194 2 201 5 12 115 9 225
-6z"/>
<path d="M492 6023 c3 -518 4 -529 26 -587 63 -167 195 -284 388 -342 47 -15
94 -19 234 -19 157 0 182 2 245 23 182 61 296 154 366 298 37 76 42 96 50 197
5 62 8 301 7 532 l-3 420 -166 3 -166 2 -9 -502 -10 -503 -27 -51 c-31 -62
-84 -108 -146 -129 -57 -19 -202 -20 -265 -1 -92 28 -158 104 -171 199 -4 26
-10 258 -14 515 l-6 467 -168 3 -168 2 3 -527z"/>
<path d="M1045 4900 c-53 -5 -133 -25 -238 -59 -132 -43 -248 -70 -304 -71
-10 0 -13 -41 -13 -171 l0 -172 50 7 c49 7 98 20 335 93 120 37 120 37 305 37
l185 1 175 -60 175 -60 155 0 155 0 175 59 c174 59 176 59 316 64 174 6 231
-4 433 -71 l156 -52 150 0 150 0 175 59 175 59 180 5 180 5 190 -62 c169 -56
306 -86 328 -74 4 2 7 77 7 167 l0 162 -83 11 c-45 7 -152 34 -238 62 -302 97
-448 95 -774 -11 l-160 -51 -135 0 c-134 0 -136 1 -273 47 -176 59 -250 75
-362 83 -132 8 -239 -10 -411 -69 l-149 -52 -180 0 -180 -1 -154 53 c-195 67
-299 80 -496 62z"/>
<path d="M2556 4353 c-3 -15 -38 -260 -76 -543 -123 -899 -181 -1304 -189
-1330 -7 -23 -9 -21 -48 35 -55 81 -177 282 -521 856 -160 266 -298 493 -307
504 -15 20 -15 19 -10 -5 3 -14 73 -322 156 -685 180 -789 199 -878 194 -884
-5 -4 -90 76 -610 572 -176 168 -321 302 -323 298 -3 -8 88 -233 308 -771 136
-332 162 -400 152 -400 -4 0 -178 128 -387 284 -209 156 -381 280 -383 275 -5
-13 161 -424 232 -573 335 -705 797 -1096 1681 -1421 71 -27 135 -48 140 -48
14 0 215 75 360 135 176 73 437 208 572 297 423 278 687 598 918 1116 84 188
206 488 200 493 -5 6 -76 -45 -455 -326 -173 -129 -316 -229 -318 -223 -3 8
193 495 444 1101 12 30 20 57 18 59 -5 6 -56 -41 -420 -388 -382 -366 -502
-476 -510 -469 -5 6 49 253 206 938 143 622 150 654 140 644 -4 -5 -179 -292
-387 -639 -429 -712 -486 -805 -494 -805 -3 0 -10 37 -17 83 -89 659 -254
1843 -257 1845 -2 2 -6 -9 -9 -25z"/>
<path d="M1075 4329 c-63 -7 -131 -25 -394 -104 -46 -14 -108 -28 -137 -31
l-54 -7 0 -169 0 -168 23 4 c12 3 45 8 72 11 28 4 116 29 198 55 197 66 247
74 441 67 l161 -5 170 -58 170 -59 150 1 150 0 155 55 155 54 22 135 c28 172
28 200 5 200 -9 0 -87 -24 -172 -52 l-155 -53 -165 0 -165 0 -155 52 c-212 70
-336 89 -475 72z"/>
<path d="M3775 4318 c-27 -5 -125 -33 -217 -63 l-166 -55 -137 0 -137 0 -167
55 c-92 30 -175 55 -184 55 -11 0 -17 -8 -17 -24 0 -41 31 -268 40 -291 6 -17
42 -34 162 -76 l153 -54 155 1 155 0 172 62 171 62 191 0 191 0 177 -60 c163
-54 304 -87 325 -74 4 3 8 77 8 165 0 119 -3 160 -12 163 -7 2 -45 9 -85 15
-39 6 -136 31 -214 56 -79 26 -174 53 -212 61 -76 16 -273 17 -352 2z"/>
<path d="M1000 3740 c-25 -4 -101 -26 -170 -48 -167 -54 -204 -64 -275 -71
l-60 -6 -3 -169 -2 -169 66 7 c36 4 147 33 247 66 l182 58 165 4 c91 2 170 7
176 10 8 5 0 56 -26 165 l-36 158 -110 1 c-60 1 -129 -2 -154 -6z"/>
<path d="M3861 3729 c-14 -38 -73 -301 -68 -306 3 -2 87 -8 188 -12 l184 -8
166 -56 c133 -45 181 -57 240 -59 l74 -3 3 154 c1 94 -1 158 -8 166 -5 7 -40
15 -78 18 -40 4 -136 28 -242 63 -170 55 -179 56 -312 61 l-138 6 -9 -24z"/>
<path d="M2190 3684 c-114 -40 -220 -64 -292 -65 -29 0 -70 -3 -90 -7 l-36 -7
94 -157 c109 -180 96 -173 222 -133 118 37 172 63 172 83 1 9 9 82 20 162 10
80 16 148 12 152 -4 3 -50 -9 -102 -28z"/>
<path d="M2830 3689 c0 -58 41 -304 53 -316 15 -14 219 -83 247 -83 13 0 36
21 63 58 60 81 161 251 154 258 -3 4 -64 10 -134 16 -111 8 -145 15 -255 53
l-128 44 0 -30z"/>
</g>
</svg>
