<svg xmlns="http://www.w3.org/2000/svg" xmlns:xlink="http://www.w3.org/1999/xlink" viewBox="0 0 63 65" fill="#fff" fill-rule="evenodd" stroke="#000" stroke-linecap="round" stroke-linejoin="round"><use xlink:href="#A" x=".5" y=".5"/><symbol id="A" overflow="visible"><g stroke="none"><path d="M27.446 13.947c-.119-.14-.293-.222-.477-.222s-.358.08-.478.22l-1.229 1.427c-.104.12-.162.274-.162.433v20.462a.66.66 0 0 0 .162.434l1.237 1.421c.121.137.294.216.477.218a.63.63 0 0 0 .475-.221l1.228-1.427c.102-.12.158-.273.158-.431l-.01-20.454c0-.158-.056-.311-.159-.431l-1.223-1.429zm-5.316 3.78c-.127 0-.247.057-.327.155l-1.228 1.486c-.067.08-.104.182-.104.286v16.712c0 .106.036.209.104.29l1.273 1.531c.084.101.206.158.336.155s.251-.062.331-.164l1.19-1.501a.45.45 0 0 0 .097-.282V19.627a.46.46 0 0 0-.107-.294l-1.236-1.455a.43.43 0 0 0-.33-.15zm15.074 20.613c.182-.001.355-.081.475-.218l1.238-1.421c.105-.12.163-.275.162-.434V15.805c0-.159-.057-.313-.161-.433l-1.229-1.427a.62.62 0 0 0-.954.002l-1.224 1.429c-.1.121-.155.274-.155.431l-.011 20.454c0 .159.055.313.158.431l1.226 1.427c.118.14.291.22.474.221zm4.794.004c.13.002.253-.055.336-.155l1.273-1.531c.068-.081.105-.184.104-.29V19.656c.001-.105-.036-.206-.104-.286l-1.228-1.486c-.08-.098-.2-.156-.327-.157s-.247.055-.329.152l-1.235 1.455a.45.45 0 0 0-.108.294v16.771c0 .104.036.201.097.282l1.192 1.501c.079.101.2.162.329.164zM17.495 22.356a.41.41 0 0 0-.298.123l-1.229 1.273c-.059.059-.092.139-.094.223v8.13c0 .087.035.168.1.232l1.276 1.242a.42.42 0 0 0 .301.113c.112 0 .219-.045.297-.125l1.19-1.252a.32.32 0 0 0 .091-.221v-8.147c-.001-.085-.036-.167-.097-.226l-1.234-1.247a.43.43 0 0 0-.303-.118zm29.137 11.336a.42.42 0 0 0 .301-.113l1.275-1.242a.32.32 0 0 0 .102-.232v-8.13c-.002-.083-.035-.163-.093-.223l-1.23-1.273a.42.42 0 0 0-.298-.123.43.43 0 0 0-.303.119l-1.234 1.247c-.061.06-.096.141-.097.226v8.147c.001.083.034.162.091.221l1.19 1.252c.072.076.181.123.296.124z" fill="#f6d43c"/><path d="M38.893 49.923c5.772.451 12.446-2.74 15.456-5.808 4.955-5.046 7.185-11.133 7.185-19.006C61.534 9.953 50.977 0 34.608 0 23.622 0 13.931 4.681 7.182 13.074 2.515 18.868 0 25.924 0 33.501c0 9.581 3.95 17.332 10.986 22.751 5.24 4.013 12.858 6.753 21.9 6.467 5.955-.193 11.936-1.778 15.084-4.185 2.588-1.983 1.401-1.946.573-1.825-.579.084-1.347.416-1.347.416-4.599 2.054-9.248 3.288-14.267 3.288-16.511 0-27.254-9.904-27.254-26.171 0-11.065 4.522-20.425 12.637-26.294 4.953-3.642 10.84-5.422 17.159-5.422 13.998 0 23.884 8.987 23.763 22.357-.073 8.252-1.56 12.831-5.937 17.805-4.063 4.612-10.24 5.759-13.986 5.406-4.613-.437-5.121-3.197-5.136-5.482v-.271l-.002-29.752a1.41 1.41 0 0 0-.199-.729l-1.011-1.655c-.203-.336-.537-.536-.892-.533s-.687.206-.891.545l-.985 1.656c-.126.218-.193.465-.191.717l-.004 29.559-.002.426c0 .017.006.03.006.047-.001.007-.012.014-.012.022.001 3.662 3.826 6.881 8.9 7.278z" fill="#fdd005"/><path d="M50.057 62.161h-.662v1.838h-.249v-1.838h-.686v-.219h1.597v.219zm1.457 1.418l.645-1.636h.424V64h-.249v-1.838h-.011L51.581 64h-.15l-.745-1.838h-.01V64h-.249v-2.057h.425l.663 1.636z" fill="#f6d43c"/></g></symbol></svg>