<?xml version="1.0" encoding="UTF-8" standalone="no"?>
<!-- Created with Inkscape (http://www.inkscape.org/) -->
<svg
   xmlns:dc="http://purl.org/dc/elements/1.1/"
   xmlns:cc="http://creativecommons.org/ns#"
   xmlns:rdf="http://www.w3.org/1999/02/22-rdf-syntax-ns#"
   xmlns:svg="http://www.w3.org/2000/svg"
   xmlns="http://www.w3.org/2000/svg"
   xmlns:sodipodi="http://sodipodi.sourceforge.net/DTD/sodipodi-0.dtd"
   xmlns:inkscape="http://www.inkscape.org/namespaces/inkscape"
   id="svg2403"
   sodipodi:version="0.32"
   inkscape:version="0.46"
   width="427.01001"
   height="141.66"
   xml:space="preserve"
   sodipodi:docname="Aspen Technology Logo.svg"
   version="1.0"
   inkscape:output_extension="org.inkscape.output.svg.inkscape"><metadata
     id="metadata2408"><rdf:RDF><cc:Work
         rdf:about=""><dc:format>image/svg+xml</dc:format><dc:type
           rdf:resource="http://purl.org/dc/dcmitype/StillImage" /></cc:Work></rdf:RDF></metadata><defs
     id="defs2406"><inkscape:perspective
       sodipodi:type="inkscape:persp3d"
       inkscape:vp_x="0 : 526.18109 : 1"
       inkscape:vp_y="0 : 1000 : 0"
       inkscape:vp_z="744.09448 : 526.18109 : 1"
       inkscape:persp3d-origin="372.04724 : 350.78739 : 1"
       id="perspective2410" /><clipPath
       clipPathUnits="userSpaceOnUse"
       id="clipPath2424"><path
         d="M 0,0 L 575.99988,0 L 575.99988,791.99988 L 0,791.99988 L 0,0 z"
         id="path2426" /></clipPath><clipPath
       clipPathUnits="userSpaceOnUse"
       id="clipPath2434"><path
         d="M 0,-4.61247 L 2.25573,-4.61247 L 2.25573,1 L 0,1 L 0,-4.61247 z"
         id="path2436" /></clipPath><clipPath
       clipPathUnits="userSpaceOnUse"
       id="clipPath2446"><path
         d="M 0,643.4999 L 258.21,643.4999 L 258.21,791.9999 L 0,791.9999 L 0,643.4999 z"
         id="path2448" /></clipPath><clipPath
       clipPathUnits="userSpaceOnUse"
       id="clipPath2454"><path
         d="M 0,0 L 575.99988,0 L 575.99988,791.99988 L 0,791.99988 L 0,0 z"
         id="path2456" /></clipPath><clipPath
       clipPathUnits="userSpaceOnUse"
       id="clipPath2464"><path
         d="M 0,-5.56107 L 2.4768,-5.56107 L 2.4768,1 L 0,1 L 0,-5.56107 z"
         id="path2466" /></clipPath><clipPath
       clipPathUnits="userSpaceOnUse"
       id="clipPath2472"><path
         d="M 0,1 L 0,0 L 1,0 L 1,1"
         id="path2474" /></clipPath></defs><sodipodi:namedview
     inkscape:window-height="974"
     inkscape:window-width="1280"
     inkscape:pageshadow="2"
     inkscape:pageopacity="0.0"
     guidetolerance="10.0"
     gridtolerance="10.0"
     objecttolerance="10.0"
     borderopacity="1.0"
     bordercolor="#666666"
     pagecolor="#ffffff"
     id="base"
     showgrid="false"
     inkscape:zoom="1"
     inkscape:cx="360"
     inkscape:cy="175"
     inkscape:window-x="-8"
     inkscape:window-y="-8"
     inkscape:current-layer="g2470" /><g
     id="g2412"
     inkscape:groupmode="layer"
     inkscape:label="2004_Annual_Report"
     transform="matrix(1.25,0,0,-1.25,-63.924383,923.08032)"><path
       d="M 0,792 L 0,792 L 0,792 L 0,792 z"
       style="fill:#ffffff;fill-opacity:1;fill-rule:nonzero;stroke:none"
       id="path2414" /><g
       id="g2416"><g
         id="g2420"><g
           id="g2422"
           clip-path="url(#clipPath2424)"><g
             id="g2428"
             transform="matrix(255.34958,0,0,141.1143,0,650.8856)"><g
               id="g2430"><g
                 id="g2432"
                 clip-path="url(#clipPath2434)"><g
                   id="g2438" /></g></g></g></g></g><g
         id="g2442"
         transform="matrix(1.8687097,0,0,1.8687097,-44.425381,-641.51101)"><g
           id="g2444"
           clip-path="url(#clipPath2446)"><g
             id="g2450"><g
               id="g2452"
               clip-path="url(#clipPath2454)"><g
                 id="g2458"
                 transform="matrix(232.558,0,0,120.712,0,671.288)"><g
                   id="g2460"><g
                     id="g2462"
                     clip-path="url(#clipPath2464)"><g
                       id="g2468"><g
                         id="g2470"
                         clip-path="url(#clipPath2472)"><path
                           d="M 0.3174,0.30061408 L 0.3132,0.29111408 L 0.3089,0.30061408 L 0.3089,0.43691408 L 0.3131,0.44641408 L 0.3174,0.43691408 L 0.3174,0.30061408"
                           style="fill:#fdd005;fill-opacity:1;fill-rule:nonzero;stroke:none"
                           id="path2476" /><path
                           d="M 0.3152,0.43521408 C 0.3152,0.43211408 0.3152,0.30541408 0.3152,0.30231408 C 0.3147,0.30121408 0.3141,0.29981408 0.3132,0.29771408 C 0.3122,0.29981408 0.3116,0.30121408 0.3111,0.30221408 C 0.3111,0.30541408 0.3111,0.43201408 0.3111,0.43521408 C 0.3115,0.43631408 0.3122,0.43761408 0.3131,0.43981408 C 0.3141,0.43761408 0.3147,0.43621408 0.3152,0.43521408 M 0.3115,0.44931408 L 0.3072,0.43981408 C 0.3069,0.43891408 0.3067,0.43791408 0.3067,0.43691408 L 0.3067,0.30061408 C 0.3067,0.29951408 0.3069,0.29851408 0.3072,0.29771408 L 0.3115,0.28821408 C 0.3119,0.28731408 0.3125,0.28681408 0.3132,0.28681408 C 0.3138,0.28681408 0.3144,0.28731408 0.3148,0.28821408 L 0.319,0.29771408 C 0.3194,0.29851408 0.3196,0.29961408 0.3196,0.30061408 L 0.3196,0.43691408 C 0.3196,0.43791408 0.3194,0.43891408 0.319,0.43971408 L 0.3148,0.44921408 C 0.3144,0.45021408 0.3138,0.45071408 0.3131,0.45071408 C 0.3125,0.45071408 0.3119,0.45021408 0.3115,0.44931408"
                           style="fill:#fdd005;fill-opacity:1;fill-rule:nonzero;stroke:none"
                           id="path2478" /><path
                           d="M 0.3007,0.29971408 L 0.2966,0.28971408 L 0.2922,0.29991408 L 0.2922,0.41121408 L 0.2964,0.42111408 L 0.3007,0.41141408 L 0.3007,0.29971408"
                           style="fill:#fdd005;fill-opacity:1;fill-rule:nonzero;stroke:none"
                           id="path2480" /><path
                           d="M 0.2992,0.41031408 C 0.2992,0.40811408 0.2992,0.30281408 0.2992,0.30081408 C 0.2988,0.29981408 0.2976,0.29691408 0.2965,0.29431408 C 0.2954,0.29691408 0.2941,0.30001408 0.2937,0.30101408 C 0.2937,0.30311408 0.2937,0.40801408 0.2937,0.41011408 C 0.2941,0.41111408 0.2954,0.41411408 0.2964,0.41661408 C 0.2975,0.41411408 0.2988,0.41131408 0.2992,0.41031408 M 0.2964,0.42411408 C 0.296,0.42411408 0.2956,0.42371408 0.2953,0.42301408 L 0.291,0.41311408 C 0.2908,0.41261408 0.2907,0.41191408 0.2907,0.41121408 L 0.2907,0.29991408 C 0.2907,0.29921408 0.2908,0.29851408 0.291,0.29801408 L 0.2954,0.28781408 C 0.2957,0.28711408 0.2961,0.28671408 0.2966,0.28671408 C 0.297,0.28671408 0.2975,0.28711408 0.2977,0.28781408 L 0.3019,0.29781408 C 0.3021,0.29841408 0.3022,0.29901408 0.3022,0.29971408 L 0.3022,0.41141408 C 0.3022,0.41211408 0.3021,0.41281408 0.3018,0.41341408 L 0.2975,0.42311408 C 0.2973,0.42371408 0.2968,0.42411408 0.2964,0.42411408"
                           style="fill:#fdd005;fill-opacity:1;fill-rule:nonzero;stroke:none"
                           id="path2482" /><path
                           d="M 0.3343,0.25771408 L 0.3307,0.24621408 L 0.3274,0.25851408 L 0.3274,0.45831408 L 0.3308,0.46931408 L 0.3343,0.45831408 L 0.3343,0.25771408"
                           style="fill:#fdd005;fill-opacity:1;fill-rule:nonzero;stroke:none"
                           id="path2484" /><path
                           d="M 0.3308,0.47771408 C 0.3296,0.47771408 0.3284,0.47631408 0.3277,0.47411408 L 0.3243,0.46301408 C 0.3239,0.46161408 0.3236,0.46001408 0.3236,0.45831408 L 0.3236,0.26141408 L 0.3236,0.25851408 C 0.3236,0.25701408 0.3238,0.25551408 0.3242,0.25421408 L 0.3275,0.24191408 C 0.3281,0.23951408 0.3293,0.23791408 0.3306,0.23781408 C 0.3318,0.23771408 0.333,0.23911408 0.3338,0.24141408 L 0.3374,0.25281408 C 0.3378,0.25431408 0.3381,0.25601408 0.3381,0.25771408 L 0.3381,0.26011408 L 0.3381,0.45831408 C 0.3381,0.46001408 0.3378,0.46171408 0.3374,0.46311408 L 0.3339,0.47411408 C 0.3332,0.47641408 0.332,0.47771408 0.3308,0.47771408"
                           style="fill:#fdd005;fill-opacity:1;fill-rule:nonzero;stroke:none"
                           id="path2486" /><path
                           d="M 0.3443,0.30061408 L 0.3485,0.29111408 L 0.3528,0.30061408 L 0.3528,0.43691408 L 0.3486,0.44641408 L 0.3443,0.43691408 L 0.3443,0.30061408"
                           style="fill:#fdd005;fill-opacity:1;fill-rule:nonzero;stroke:none"
                           id="path2488" /><path
                           d="M 0.3486,0.43981408 C 0.3495,0.43761408 0.3502,0.43631408 0.3506,0.43521408 C 0.3506,0.43201408 0.3506,0.30541408 0.3506,0.30221408 C 0.3502,0.30121408 0.3495,0.29981408 0.3486,0.29771408 C 0.3476,0.29981408 0.347,0.30121408 0.3465,0.30231408 C 0.3465,0.30541408 0.3465,0.43211408 0.3465,0.43521408 C 0.347,0.43621408 0.3476,0.43761408 0.3486,0.43981408 M 0.3486,0.45071408 C 0.3479,0.45071408 0.3473,0.45021408 0.3469,0.44921408 L 0.3427,0.43971408 C 0.3423,0.43891408 0.3421,0.43791408 0.3421,0.43691408 L 0.3421,0.30061408 C 0.3421,0.29961408 0.3423,0.29851408 0.3427,0.29771408 L 0.3469,0.28821408 C 0.3473,0.28731408 0.3479,0.28681408 0.3485,0.28681408 C 0.3492,0.28681408 0.3498,0.28731408 0.3502,0.28821408 L 0.3545,0.29771408 C 0.3548,0.29851408 0.355,0.29951408 0.355,0.30061408 L 0.355,0.43691408 C 0.355,0.43791408 0.3548,0.43891408 0.3545,0.43981408 L 0.3502,0.44931408 C 0.3498,0.45021408 0.3492,0.45071408 0.3486,0.45071408"
                           style="fill:#fdd005;fill-opacity:1;fill-rule:nonzero;stroke:none"
                           id="path2490" /><path
                           d="M 0.361,0.29971408 L 0.3651,0.28971408 L 0.3695,0.29991408 L 0.3695,0.41121408 L 0.3653,0.42111408 L 0.361,0.41141408 L 0.361,0.29971408"
                           style="fill:#fdd005;fill-opacity:1;fill-rule:nonzero;stroke:none"
                           id="path2492" /><path
                           d="M 0.3653,0.41661408 C 0.3664,0.41411408 0.3676,0.41111408 0.368,0.41011408 C 0.368,0.40801408 0.368,0.30311408 0.368,0.30101408 C 0.3676,0.30001408 0.3663,0.29691408 0.3652,0.29431408 C 0.3641,0.29691408 0.3629,0.29981408 0.3625,0.30081408 C 0.3625,0.30281408 0.3625,0.40811408 0.3625,0.41031408 C 0.363,0.41131408 0.3642,0.41411408 0.3653,0.41661408 M 0.3642,0.42311408 L 0.3599,0.41341408 C 0.3597,0.41281408 0.3595,0.41211408 0.3595,0.41141408 L 0.3595,0.29971408 C 0.3595,0.29901408 0.3596,0.29841408 0.3599,0.29781408 L 0.364,0.28781408 C 0.3643,0.28711408 0.3647,0.28671408 0.3651,0.28671408 C 0.3656,0.28671408 0.366,0.28711408 0.3663,0.28781408 L 0.3707,0.29801408 C 0.3709,0.29851408 0.371,0.29921408 0.371,0.29991408 L 0.371,0.41121408 C 0.371,0.41191408 0.3709,0.41261408 0.3707,0.41311408 L 0.3664,0.42301408 C 0.3661,0.42371408 0.3657,0.42411408 0.3653,0.42411408 C 0.3649,0.42411408 0.3644,0.42371408 0.3642,0.42311408"
                           style="fill:#fdd005;fill-opacity:1;fill-rule:nonzero;stroke:none"
                           id="path2494" /><path
                           d="M 0.2847,0.32841408 L 0.2805,0.32001408 L 0.2761,0.32831408 L 0.2761,0.38241408 L 0.2804,0.39091408 L 0.2847,0.38261408 L 0.2847,0.32841408"
                           style="fill:#fdd005;fill-opacity:1;fill-rule:nonzero;stroke:none"
                           id="path2496" /><path
                           d="M 0.2833,0.38181408 C 0.2833,0.38011408 0.2833,0.33081408 0.2833,0.32921408 C 0.2829,0.32841408 0.2815,0.32561408 0.2805,0.32351408 C 0.2794,0.32561408 0.2779,0.32831408 0.2775,0.32921408 C 0.2775,0.33081408 0.2775,0.38001408 0.2775,0.38161408 C 0.2779,0.38241408 0.2793,0.38531408 0.2804,0.38741408 C 0.2815,0.38531408 0.2829,0.38261408 0.2833,0.38181408 M 0.2804,0.39321408 C 0.28,0.39321408 0.2796,0.39291408 0.2793,0.39241408 L 0.2751,0.38391408 C 0.2749,0.38351408 0.2748,0.38301408 0.2748,0.38241408 L 0.2748,0.32831408 C 0.2748,0.32771408 0.2749,0.32721408 0.2751,0.32671408 L 0.2795,0.31851408 C 0.2798,0.31801408 0.2802,0.31771408 0.2806,0.31771408 C 0.281,0.31771408 0.2813,0.31801408 0.2816,0.31851408 L 0.2857,0.32691408 C 0.2859,0.32731408 0.286,0.32781408 0.286,0.32841408 L 0.286,0.38261408 C 0.286,0.38321408 0.2859,0.38371408 0.2857,0.38411408 L 0.2814,0.39241408 C 0.2812,0.39301408 0.2808,0.39321408 0.2804,0.39321408"
                           style="fill:#fdd005;fill-opacity:1;fill-rule:nonzero;stroke:none"
                           id="path2498" /><path
                           d="M 0.377,0.32841408 L 0.3812,0.32001408 L 0.3856,0.32831408 L 0.3856,0.38241408 L 0.3813,0.39091408 L 0.377,0.38261408 L 0.377,0.32841408"
                           style="fill:#fdd005;fill-opacity:1;fill-rule:nonzero;stroke:none"
                           id="path2500" /><path
                           d="M 0.3813,0.38741408 C 0.3824,0.38531408 0.3838,0.38241408 0.3842,0.38161408 C 0.3842,0.38001408 0.3842,0.33081408 0.3842,0.32921408 C 0.3838,0.32831408 0.3823,0.32561408 0.3812,0.32351408 C 0.3802,0.32561408 0.3788,0.32841408 0.3784,0.32921408 C 0.3784,0.33081408 0.3784,0.38011408 0.3784,0.38181408 C 0.3788,0.38261408 0.3802,0.38531408 0.3813,0.38741408 M 0.3803,0.39241408 L 0.376,0.38411408 C 0.3758,0.38371408 0.3757,0.38321408 0.3757,0.38261408 L 0.3757,0.32841408 C 0.3757,0.32781408 0.3758,0.32731408 0.376,0.32691408 L 0.3801,0.31851408 C 0.3804,0.31801408 0.3807,0.31771408 0.3811,0.31771408 C 0.3815,0.31771408 0.3819,0.31801408 0.3822,0.31851408 L 0.3866,0.32671408 C 0.3868,0.32721408 0.3869,0.32771408 0.3869,0.32831408 L 0.3869,0.38241408 C 0.3869,0.38301408 0.3868,0.38351408 0.3866,0.38391408 L 0.3824,0.39241408 C 0.3821,0.39291408 0.3817,0.39321408 0.3813,0.39321408 C 0.3809,0.39321408 0.3805,0.39301408 0.3803,0.39241408"
                           style="fill:#fdd005;fill-opacity:1;fill-rule:nonzero;stroke:none"
                           id="path2502" /><path
                           d="M 0.3878,0.16461408 C 0.3858,0.16401408 0.3831,0.16181408 0.3831,0.16181408 C 0.3672,0.14811408 0.3512,0.13991408 0.3338,0.13991408 C 0.2767,0.13991408 0.2395,0.20591408 0.2395,0.31421408 C 0.2395,0.38791408 0.2552,0.45031408 0.2832,0.48941408 C 0.3004,0.51361408 0.3207,0.52551408 0.3426,0.52551408 C 0.391,0.52551408 0.4252,0.46561408 0.4248,0.37651408 C 0.4245,0.32161408 0.4194,0.29111408 0.4042,0.25791408 C 0.3902,0.22721408 0.3688,0.21961408 0.3559,0.22191408 C 0.3397,0.22491408 0.3381,0.24381408 0.3381,0.25911408 C 0.3381,0.25911408 0.3236,0.26161408 0.3236,0.25821408 C 0.3236,0.23391408 0.3369,0.21241408 0.3544,0.20981408 C 0.3744,0.20681408 0.3974,0.22801408 0.4079,0.24851408 C 0.425,0.28211408 0.4327,0.32261408 0.4327,0.37511408 C 0.4327,0.47601408 0.3962,0.54231408 0.3396,0.54231408 C 0.3016,0.54231408 0.2681,0.51111408 0.2448,0.45521408 C 0.2286,0.41661408 0.2199,0.36961408 0.2199,0.31911408 C 0.2199,0.25531408 0.2336,0.20371408 0.2579,0.16761408 C 0.276,0.14091408 0.3024,0.12261408 0.3336,0.12461408 C 0.3542,0.12581408 0.3749,0.13641408 0.3858,0.15241408 C 0.3948,0.16561408 0.3907,0.16541408 0.3878,0.16461408"
                           style="fill:#fdd005;fill-opacity:1;fill-rule:nonzero;stroke:none"
                           id="path2504" /><path
                           d="M 0.4412,0.22731408 C 0.4431,0.23651408 0.4485,0.24861408 0.4594,0.24861408 C 0.4679,0.24861408 0.474,0.24181408 0.474,0.22361408 L 0.474,0.21621408 C 0.4425,0.20541408 0.4306,0.19041408 0.4306,0.16041408 C 0.4306,0.13541408 0.4399,0.12271408 0.4508,0.12271408 C 0.4615,0.12271408 0.4694,0.13381408 0.4743,0.14431408 L 0.4754,0.12541408 L 0.4855,0.12541408 C 0.4846,0.13251408 0.4839,0.13991408 0.4839,0.15491408 L 0.4839,0.22391408 C 0.4839,0.25391408 0.4713,0.26491408 0.4593,0.26491408 C 0.4459,0.26491408 0.4371,0.25181408 0.4326,0.23601408 L 0.4412,0.22731408 M 0.474,0.16171408 C 0.4683,0.14911408 0.4593,0.13911408 0.4522,0.13911408 C 0.4467,0.13911408 0.4404,0.14751408 0.4404,0.16011408 C 0.4404,0.17911408 0.4515,0.19171408 0.474,0.19941408 L 0.474,0.16171408"
                           style="fill:#409629;fill-opacity:1;fill-rule:nonzero;stroke:none"
                           id="path2506" /><path
                           d="M 0.4412,0.22731408 C 0.4431,0.23651408 0.4485,0.24861408 0.4594,0.24861408 C 0.4679,0.24861408 0.474,0.24181408 0.474,0.22361408 L 0.474,0.21621408 C 0.4425,0.20541408 0.4306,0.19041408 0.4306,0.16041408 C 0.4306,0.13541408 0.4399,0.12271408 0.4508,0.12271408 C 0.4615,0.12271408 0.4694,0.13381408 0.4743,0.14431408 L 0.4754,0.12541408 L 0.4855,0.12541408 C 0.4846,0.13251408 0.4839,0.13991408 0.4839,0.15491408 L 0.4839,0.22391408 C 0.4839,0.25391408 0.4713,0.26491408 0.4593,0.26491408 C 0.4459,0.26491408 0.4371,0.25181408 0.4326,0.23601408 L 0.4412,0.22731408 z M 0.474,0.16171408 C 0.4683,0.14911408 0.4593,0.13911408 0.4522,0.13911408 C 0.4467,0.13911408 0.4404,0.14751408 0.4404,0.16011408 C 0.4404,0.17911408 0.4515,0.19171408 0.474,0.19941408 L 0.474,0.16171408 z"
                           style="fill:none;stroke:#409629;stroke-width:0.0012;stroke-linecap:butt;stroke-linejoin:miter;stroke-miterlimit:4;stroke-dasharray:none;stroke-opacity:1"
                           id="path2508" /><path
                           d="M 0.4434,0.16011408 C 0.4434,0.17451408 0.4528,0.18531408 0.471,0.19231408 C 0.471,0.18371408 0.471,0.16731408 0.471,0.16401408 C 0.4656,0.15281408 0.4578,0.14481408 0.4522,0.14481408 C 0.4485,0.14481408 0.4434,0.15061408 0.4434,0.16011408 M 0.4735,0.20501408 C 0.458,0.19981408 0.4374,0.18941408 0.4374,0.16011408 C 0.4374,0.14411408 0.445,0.13331408 0.4522,0.13331408 C 0.4598,0.13331408 0.4697,0.14341408 0.4763,0.15791408 C 0.4768,0.15901408 0.477,0.16031408 0.477,0.16171408 L 0.477,0.19941408 C 0.477,0.20111408 0.4766,0.20271408 0.476,0.20381408 C 0.4753,0.20491408 0.4744,0.20531408 0.4735,0.20501408"
                           style="fill:#409629;fill-opacity:1;fill-rule:nonzero;stroke:none"
                           id="path2510" /><path
                           d="M 0.4434,0.16011408 C 0.4434,0.17451408 0.4528,0.18531408 0.471,0.19231408 C 0.471,0.18371408 0.471,0.16731408 0.471,0.16401408 C 0.4656,0.15281408 0.4578,0.14481408 0.4522,0.14481408 C 0.4485,0.14481408 0.4434,0.15061408 0.4434,0.16011408 z M 0.4735,0.20501408 C 0.458,0.19981408 0.4374,0.18941408 0.4374,0.16011408 C 0.4374,0.14411408 0.445,0.13331408 0.4522,0.13331408 C 0.4598,0.13331408 0.4697,0.14341408 0.4763,0.15791408 C 0.4768,0.15901408 0.477,0.16031408 0.477,0.16171408 L 0.477,0.19941408 C 0.477,0.20111408 0.4766,0.20271408 0.476,0.20381408 C 0.4753,0.20491408 0.4744,0.20531408 0.4735,0.20501408 z"
                           style="fill:none;stroke:#409629;stroke-width:0.0012;stroke-linecap:butt;stroke-linejoin:miter;stroke-miterlimit:4;stroke-dasharray:none;stroke-opacity:1"
                           id="path2512" /><path
                           d="M 0.4593,0.25921408 C 0.4643,0.25921408 0.4809,0.25661408 0.4809,0.22391408 L 0.4809,0.15491408 C 0.4809,0.14421408 0.4812,0.13721408 0.4818,0.13111408 C 0.4801,0.13111408 0.4795,0.13111408 0.4781,0.13111408 C 0.4778,0.13661408 0.4773,0.14501408 0.4773,0.14501408 C 0.4771,0.14721408 0.4763,0.14911408 0.4752,0.14981408 C 0.4741,0.15051408 0.4729,0.14991408 0.4721,0.14821408 C 0.4679,0.13921408 0.4608,0.12851408 0.4508,0.12851408 C 0.4425,0.12851408 0.4335,0.13691408 0.4335,0.16041408 C 0.4335,0.18271408 0.4404,0.19891408 0.4746,0.21051408 C 0.476,0.21101408 0.477,0.21341408 0.477,0.21621408 L 0.477,0.22361408 C 0.477,0.24311408 0.4706,0.25441408 0.4594,0.25441408 C 0.4481,0.25441408 0.4425,0.24291408 0.44,0.23501408 C 0.4386,0.23641408 0.4382,0.23681408 0.4369,0.23821408 C 0.4404,0.24761408 0.4471,0.25921408 0.4593,0.25921408 M 0.43,0.23871408 C 0.4296,0.23741408 0.4295,0.23581408 0.4297,0.23431408 C 0.43,0.23281408 0.4305,0.23161408 0.4312,0.23091408 L 0.4398,0.22221408 C 0.4406,0.22141408 0.4415,0.22131408 0.4423,0.22191408 C 0.4431,0.22241408 0.4437,0.22361408 0.444,0.22511408 C 0.4449,0.22931408 0.4485,0.24281408 0.4594,0.24281408 C 0.4698,0.24281408 0.471,0.23191408 0.471,0.22361408 C 0.471,0.22361408 0.471,0.22221408 0.471,0.22101408 C 0.4442,0.21131408 0.4276,0.19741408 0.4276,0.16041408 C 0.4276,0.13441408 0.4369,0.11701408 0.4508,0.11701408 C 0.4601,0.11701408 0.4672,0.12471408 0.472,0.13221408 C 0.4722,0.12871408 0.4724,0.12471408 0.4724,0.12471408 C 0.4726,0.12181408 0.4739,0.11961408 0.4754,0.11961408 L 0.4855,0.11961408 C 0.4864,0.11961408 0.4873,0.12041408 0.4879,0.12191408 C 0.4884,0.12331408 0.4886,0.12511408 0.4884,0.12681408 C 0.4874,0.13411408 0.4869,0.14101408 0.4869,0.15491408 L 0.4869,0.22391408 C 0.4869,0.25841408 0.472,0.27071408 0.4593,0.27071408 C 0.4465,0.27071408 0.4358,0.25901408 0.43,0.23871408"
                           style="fill:#409629;fill-opacity:1;fill-rule:nonzero;stroke:none"
                           id="path2514" /><path
                           d="M 0.4593,0.25921408 C 0.4643,0.25921408 0.4809,0.25661408 0.4809,0.22391408 L 0.4809,0.15491408 C 0.4809,0.14421408 0.4812,0.13721408 0.4818,0.13111408 C 0.4801,0.13111408 0.4795,0.13111408 0.4781,0.13111408 C 0.4778,0.13661408 0.4773,0.14501408 0.4773,0.14501408 C 0.4771,0.14721408 0.4763,0.14911408 0.4752,0.14981408 C 0.4741,0.15051408 0.4729,0.14991408 0.4721,0.14821408 C 0.4679,0.13921408 0.4608,0.12851408 0.4508,0.12851408 C 0.4425,0.12851408 0.4335,0.13691408 0.4335,0.16041408 C 0.4335,0.18271408 0.4404,0.19891408 0.4746,0.21051408 C 0.476,0.21101408 0.477,0.21341408 0.477,0.21621408 L 0.477,0.22361408 C 0.477,0.24311408 0.4706,0.25441408 0.4594,0.25441408 C 0.4481,0.25441408 0.4425,0.24291408 0.44,0.23501408 C 0.4386,0.23641408 0.4382,0.23681408 0.4369,0.23821408 C 0.4404,0.24761408 0.4471,0.25921408 0.4593,0.25921408 z M 0.43,0.23871408 C 0.4296,0.23741408 0.4295,0.23581408 0.4297,0.23431408 C 0.43,0.23281408 0.4305,0.23161408 0.4312,0.23091408 L 0.4398,0.22221408 C 0.4406,0.22141408 0.4415,0.22131408 0.4423,0.22191408 C 0.4431,0.22241408 0.4437,0.22361408 0.444,0.22511408 C 0.4449,0.22931408 0.4485,0.24281408 0.4594,0.24281408 C 0.4698,0.24281408 0.471,0.23191408 0.471,0.22361408 C 0.471,0.22361408 0.471,0.22221408 0.471,0.22101408 C 0.4442,0.21131408 0.4276,0.19741408 0.4276,0.16041408 C 0.4276,0.13441408 0.4369,0.11701408 0.4508,0.11701408 C 0.4601,0.11701408 0.4672,0.12471408 0.472,0.13221408 C 0.4722,0.12871408 0.4724,0.12471408 0.4724,0.12471408 C 0.4726,0.12181408 0.4739,0.11961408 0.4754,0.11961408 L 0.4855,0.11961408 C 0.4864,0.11961408 0.4873,0.12041408 0.4879,0.12191408 C 0.4884,0.12331408 0.4886,0.12511408 0.4884,0.12681408 C 0.4874,0.13411408 0.4869,0.14101408 0.4869,0.15491408 L 0.4869,0.22391408 C 0.4869,0.25841408 0.472,0.27071408 0.4593,0.27071408 C 0.4465,0.27071408 0.4358,0.25901408 0.43,0.23871408 z"
                           style="fill:none;stroke:#409629;stroke-width:0.006;stroke-linecap:butt;stroke-linejoin:miter;stroke-miterlimit:4;stroke-dasharray:none;stroke-opacity:1"
                           id="path2516" /><path
                           d="M 0.5045,0.16011408 C 0.5091,0.14721408 0.5159,0.13911408 0.5248,0.13911408 C 0.5355,0.13911408 0.5401,0.15011408 0.5401,0.16171408 C 0.5401,0.19651408 0.498,0.17801408 0.4989,0.22811408 C 0.4993,0.25181408 0.5087,0.26521408 0.5224,0.26491408 C 0.5317,0.26471408 0.5419,0.25491408 0.5467,0.24101408 L 0.5399,0.22941408 C 0.5344,0.24231408 0.5292,0.24861408 0.5216,0.24861408 C 0.5132,0.24861408 0.5087,0.24041408 0.5087,0.22831408 C 0.5087,0.19861408 0.55,0.21381408 0.55,0.16281408 C 0.55,0.13621408 0.538,0.12271408 0.5251,0.12271408 C 0.514,0.12271408 0.5032,0.13201408 0.4967,0.14881408 L 0.5045,0.16011408"
                           style="fill:#409629;fill-opacity:1;fill-rule:nonzero;stroke:none"
                           id="path2518" /><path
                           d="M 0.5045,0.16011408 C 0.5091,0.14721408 0.5159,0.13911408 0.5248,0.13911408 C 0.5355,0.13911408 0.5401,0.15011408 0.5401,0.16171408 C 0.5401,0.19651408 0.498,0.17801408 0.4989,0.22811408 C 0.4993,0.25181408 0.5087,0.26521408 0.5224,0.26491408 C 0.5317,0.26471408 0.5419,0.25491408 0.5467,0.24101408 L 0.5399,0.22941408 C 0.5344,0.24231408 0.5292,0.24861408 0.5216,0.24861408 C 0.5132,0.24861408 0.5087,0.24041408 0.5087,0.22831408 C 0.5087,0.19861408 0.55,0.21381408 0.55,0.16281408 C 0.55,0.13621408 0.538,0.12271408 0.5251,0.12271408 C 0.514,0.12271408 0.5032,0.13201408 0.4967,0.14881408 L 0.5045,0.16011408 z"
                           style="fill:none;stroke:#409629;stroke-width:0.0012;stroke-linecap:butt;stroke-linejoin:miter;stroke-miterlimit:4;stroke-dasharray:none;stroke-opacity:1"
                           id="path2520" /><path
                           d="M 0.5431,0.16171408 C 0.5431,0.18181408 0.5329,0.18751408 0.5229,0.19311408 C 0.51,0.20031408 0.5015,0.20661408 0.5018,0.22791408 C 0.5022,0.24771408 0.5099,0.25941408 0.5223,0.25921408 C 0.5299,0.25901408 0.538,0.25181408 0.5426,0.24171408 C 0.5415,0.23991408 0.5412,0.23921408 0.5401,0.23741408 C 0.5344,0.24891408 0.5288,0.25441408 0.5216,0.25441408 C 0.5119,0.25441408 0.5057,0.24421408 0.5057,0.22831408 C 0.5057,0.21121408 0.5152,0.20571408 0.5244,0.20041408 C 0.5355,0.19411408 0.547,0.18741408 0.547,0.16281408 C 0.547,0.13911408 0.536,0.12851408 0.5251,0.12851408 C 0.5157,0.12851408 0.5071,0.13591408 0.5012,0.14811408 C 0.5025,0.15001408 0.5029,0.15061408 0.5041,0.15231408 C 0.5094,0.14011408 0.5165,0.13331408 0.5248,0.13331408 C 0.5375,0.13331408 0.5431,0.14761408 0.5431,0.16171408 M 0.4959,0.22831408 C 0.4954,0.19641408 0.5097,0.18841408 0.5213,0.18201408 C 0.5311,0.17651408 0.5372,0.17261408 0.5372,0.16171408 C 0.5372,0.15351408 0.5339,0.14481408 0.5248,0.14481408 C 0.5175,0.14481408 0.5113,0.15131408 0.5069,0.16341408 C 0.5065,0.16471408 0.5057,0.16561408 0.5049,0.16581408 C 0.5041,0.16611408 0.5033,0.16571408 0.5027,0.16471408 L 0.4949,0.15341408 C 0.4936,0.15151408 0.4933,0.14791408 0.4943,0.14541408 C 0.5012,0.12761408 0.5127,0.11701408 0.5251,0.11701408 C 0.5385,0.11701408 0.553,0.13131408 0.553,0.16281408 C 0.553,0.19601408 0.5374,0.20501408 0.5261,0.21151408 C 0.5171,0.21661408 0.5117,0.22031408 0.5117,0.22831408 C 0.5117,0.24101408 0.5179,0.24281408 0.5216,0.24281408 C 0.5279,0.24281408 0.5323,0.23801408 0.5376,0.22571408 C 0.5381,0.22451408 0.5388,0.22381408 0.5396,0.22361408 C 0.5404,0.22351408 0.5412,0.22401408 0.5418,0.22501408 L 0.5487,0.23661408 C 0.5498,0.23851408 0.55,0.24171408 0.5492,0.24411408 C 0.5439,0.25951408 0.5329,0.27041408 0.5224,0.27071408 C 0.5067,0.27101408 0.4963,0.25431408 0.4959,0.22831408"
                           style="fill:#409629;fill-opacity:1;fill-rule:nonzero;stroke:none"
                           id="path2522" /><path
                           d="M 0.5431,0.16171408 C 0.5431,0.18181408 0.5329,0.18751408 0.5229,0.19311408 C 0.51,0.20031408 0.5015,0.20661408 0.5018,0.22791408 C 0.5022,0.24771408 0.5099,0.25941408 0.5223,0.25921408 C 0.5299,0.25901408 0.538,0.25181408 0.5426,0.24171408 C 0.5415,0.23991408 0.5412,0.23921408 0.5401,0.23741408 C 0.5344,0.24891408 0.5288,0.25441408 0.5216,0.25441408 C 0.5119,0.25441408 0.5057,0.24421408 0.5057,0.22831408 C 0.5057,0.21121408 0.5152,0.20571408 0.5244,0.20041408 C 0.5355,0.19411408 0.547,0.18741408 0.547,0.16281408 C 0.547,0.13911408 0.536,0.12851408 0.5251,0.12851408 C 0.5157,0.12851408 0.5071,0.13591408 0.5012,0.14811408 C 0.5025,0.15001408 0.5029,0.15061408 0.5041,0.15231408 C 0.5094,0.14011408 0.5165,0.13331408 0.5248,0.13331408 C 0.5375,0.13331408 0.5431,0.14761408 0.5431,0.16171408 z M 0.4959,0.22831408 C 0.4954,0.19641408 0.5097,0.18841408 0.5213,0.18201408 C 0.5311,0.17651408 0.5372,0.17261408 0.5372,0.16171408 C 0.5372,0.15351408 0.5339,0.14481408 0.5248,0.14481408 C 0.5175,0.14481408 0.5113,0.15131408 0.5069,0.16341408 C 0.5065,0.16471408 0.5057,0.16561408 0.5049,0.16581408 C 0.5041,0.16611408 0.5033,0.16571408 0.5027,0.16471408 L 0.4949,0.15341408 C 0.4936,0.15151408 0.4933,0.14791408 0.4943,0.14541408 C 0.5012,0.12761408 0.5127,0.11701408 0.5251,0.11701408 C 0.5385,0.11701408 0.553,0.13131408 0.553,0.16281408 C 0.553,0.19601408 0.5374,0.20501408 0.5261,0.21151408 C 0.5171,0.21661408 0.5117,0.22031408 0.5117,0.22831408 C 0.5117,0.24101408 0.5179,0.24281408 0.5216,0.24281408 C 0.5279,0.24281408 0.5323,0.23801408 0.5376,0.22571408 C 0.5381,0.22451408 0.5388,0.22381408 0.5396,0.22361408 C 0.5404,0.22351408 0.5412,0.22401408 0.5418,0.22501408 L 0.5487,0.23661408 C 0.5498,0.23851408 0.55,0.24171408 0.5492,0.24411408 C 0.5439,0.25951408 0.5329,0.27041408 0.5224,0.27071408 C 0.5067,0.27101408 0.4963,0.25431408 0.4959,0.22831408 z"
                           style="fill:none;stroke:#409629;stroke-width:0.0012;stroke-linecap:butt;stroke-linejoin:miter;stroke-miterlimit:4;stroke-dasharray:none;stroke-opacity:1"
                           id="path2524" /><path
                           d="M 0.5716,0.074814074 L 0.5716,0.13851408 L 0.5721,0.13801408 C 0.5776,0.12931408 0.5841,0.12271408 0.5908,0.12271408 C 0.6029,0.12271408 0.6194,0.14061408 0.6194,0.19381408 C 0.6194,0.24861408 0.6029,0.26491408 0.5903,0.26491408 C 0.5834,0.26491408 0.5755,0.25651408 0.5718,0.24621408 L 0.5716,0.24621408 L 0.5716,0.26231408 L 0.5617,0.26231408 L 0.5617,0.074814074 L 0.5716,0.074814074 M 0.5716,0.23021408 C 0.5785,0.24331408 0.5832,0.24861408 0.5895,0.24861408 C 0.6018,0.24861408 0.6096,0.22971408 0.6096,0.19491408 C 0.6096,0.15351408 0.6009,0.13911408 0.5895,0.13911408 C 0.5836,0.13911408 0.5769,0.14671408 0.5716,0.15801408 L 0.5716,0.23021408"
                           style="fill:#409629;fill-opacity:1;fill-rule:nonzero;stroke:none"
                           id="path2526" /><path
                           d="M 0.5716,0.074814074 L 0.5716,0.13851408 L 0.5721,0.13801408 C 0.5776,0.12931408 0.5841,0.12271408 0.5908,0.12271408 C 0.6029,0.12271408 0.6194,0.14061408 0.6194,0.19381408 C 0.6194,0.24861408 0.6029,0.26491408 0.5903,0.26491408 C 0.5834,0.26491408 0.5755,0.25651408 0.5718,0.24621408 L 0.5716,0.24621408 L 0.5716,0.26231408 L 0.5617,0.26231408 L 0.5617,0.074814074 L 0.5716,0.074814074 z M 0.5716,0.23021408 C 0.5785,0.24331408 0.5832,0.24861408 0.5895,0.24861408 C 0.6018,0.24861408 0.6096,0.22971408 0.6096,0.19491408 C 0.6096,0.15351408 0.6009,0.13911408 0.5895,0.13911408 C 0.5836,0.13911408 0.5769,0.14671408 0.5716,0.15801408 L 0.5716,0.23021408 z"
                           style="fill:none;stroke:#409629;stroke-width:0.0012;stroke-linecap:butt;stroke-linejoin:miter;stroke-miterlimit:4;stroke-dasharray:none;stroke-opacity:1"
                           id="path2528" /><path
                           d="M 0.5895,0.24281408 C 0.6003,0.24281408 0.6066,0.22541408 0.6066,0.19491408 C 0.6066,0.16121408 0.601,0.14481408 0.5895,0.14481408 C 0.585,0.14481408 0.5794,0.15091408 0.5745,0.16051408 C 0.5745,0.16491408 0.5745,0.22321408 0.5745,0.22771408 C 0.5806,0.23891408 0.5845,0.24281408 0.5895,0.24281408 M 0.5695,0.23431408 C 0.5689,0.23321408 0.5686,0.23171408 0.5686,0.23021408 L 0.5686,0.15801408 C 0.5686,0.15661408 0.5688,0.15521408 0.5693,0.15421408 C 0.5755,0.14111408 0.583,0.13331408 0.5895,0.13331408 C 0.6,0.13331408 0.6125,0.14401408 0.6125,0.19491408 C 0.6125,0.23211408 0.6039,0.25441408 0.5895,0.25441408 C 0.5816,0.25441408 0.5762,0.24701408 0.5695,0.23431408"
                           style="fill:#409629;fill-opacity:1;fill-rule:nonzero;stroke:none"
                           id="path2530" /><path
                           d="M 0.5895,0.24281408 C 0.6003,0.24281408 0.6066,0.22541408 0.6066,0.19491408 C 0.6066,0.16121408 0.601,0.14481408 0.5895,0.14481408 C 0.585,0.14481408 0.5794,0.15091408 0.5745,0.16051408 C 0.5745,0.16491408 0.5745,0.22321408 0.5745,0.22771408 C 0.5806,0.23891408 0.5845,0.24281408 0.5895,0.24281408 z M 0.5695,0.23431408 C 0.5689,0.23321408 0.5686,0.23171408 0.5686,0.23021408 L 0.5686,0.15801408 C 0.5686,0.15661408 0.5688,0.15521408 0.5693,0.15421408 C 0.5755,0.14111408 0.583,0.13331408 0.5895,0.13331408 C 0.6,0.13331408 0.6125,0.14401408 0.6125,0.19491408 C 0.6125,0.23211408 0.6039,0.25441408 0.5895,0.25441408 C 0.5816,0.25441408 0.5762,0.24701408 0.5695,0.23431408 z"
                           style="fill:none;stroke:#409629;stroke-width:0.0012;stroke-linecap:butt;stroke-linejoin:miter;stroke-miterlimit:4;stroke-dasharray:none;stroke-opacity:1"
                           id="path2532" /><path
                           d="M 0.5718,0.24051408 C 0.5728,0.24051408 0.5737,0.24141408 0.5743,0.24291408 C 0.5776,0.25201408 0.5846,0.25921408 0.5903,0.25921408 C 0.6029,0.25921408 0.6164,0.24201408 0.6164,0.19381408 C 0.6164,0.14231408 0.6003,0.12851408 0.5908,0.12851408 C 0.5842,0.12851408 0.578,0.13611408 0.574,0.14251408 C 0.5738,0.14271408 0.5736,0.14301408 0.5734,0.14321408 L 0.5729,0.14371408 C 0.572,0.14461408 0.5709,0.14451408 0.57,0.14341408 C 0.5691,0.14241408 0.5686,0.14051408 0.5686,0.13851408 C 0.5686,0.13851408 0.5686,0.090114074 0.5686,0.080614074 C 0.5669,0.080614074 0.5663,0.080614074 0.5647,0.080614074 C 0.5647,0.091114074 0.5647,0.24601408 0.5647,0.25651408 C 0.5663,0.25651408 0.5669,0.25651408 0.5686,0.25651408 C 0.5686,0.25181408 0.5686,0.24621408 0.5686,0.24621408 C 0.5686,0.24301408 0.5699,0.24051408 0.5716,0.24051408 L 0.5718,0.24051408 M 0.5745,0.25941408 C 0.5745,0.26021408 0.5745,0.26231408 0.5745,0.26231408 C 0.5745,0.26551408 0.5732,0.26811408 0.5716,0.26811408 L 0.5617,0.26811408 C 0.5601,0.26811408 0.5587,0.26551408 0.5587,0.26231408 L 0.5587,0.074814074 C 0.5587,0.071614074 0.5601,0.069114074 0.5617,0.069114074 L 0.5716,0.069114074 C 0.5732,0.069114074 0.5745,0.071614074 0.5745,0.074814074 C 0.5745,0.074814074 0.5745,0.11231408 0.5745,0.12751408 C 0.579,0.12191408 0.5846,0.11701408 0.5908,0.11701408 C 0.606,0.11701408 0.6224,0.14101408 0.6224,0.19381408 C 0.6224,0.25061408 0.6051,0.27071408 0.5903,0.27071408 C 0.585,0.27071408 0.5791,0.26611408 0.5745,0.25941408"
                           style="fill:#409629;fill-opacity:1;fill-rule:nonzero;stroke:none"
                           id="path2534" /><path
                           d="M 0.5718,0.24051408 C 0.5728,0.24051408 0.5737,0.24141408 0.5743,0.24291408 C 0.5776,0.25201408 0.5846,0.25921408 0.5903,0.25921408 C 0.6029,0.25921408 0.6164,0.24201408 0.6164,0.19381408 C 0.6164,0.14231408 0.6003,0.12851408 0.5908,0.12851408 C 0.5842,0.12851408 0.578,0.13611408 0.574,0.14251408 C 0.5738,0.14271408 0.5736,0.14301408 0.5734,0.14321408 L 0.5729,0.14371408 C 0.572,0.14461408 0.5709,0.14451408 0.57,0.14341408 C 0.5691,0.14241408 0.5686,0.14051408 0.5686,0.13851408 C 0.5686,0.13851408 0.5686,0.090114074 0.5686,0.080614074 C 0.5669,0.080614074 0.5663,0.080614074 0.5647,0.080614074 C 0.5647,0.091114074 0.5647,0.24601408 0.5647,0.25651408 C 0.5663,0.25651408 0.5669,0.25651408 0.5686,0.25651408 C 0.5686,0.25181408 0.5686,0.24621408 0.5686,0.24621408 C 0.5686,0.24301408 0.5699,0.24051408 0.5716,0.24051408 L 0.5718,0.24051408 z M 0.5745,0.25941408 C 0.5745,0.26021408 0.5745,0.26231408 0.5745,0.26231408 C 0.5745,0.26551408 0.5732,0.26811408 0.5716,0.26811408 L 0.5617,0.26811408 C 0.5601,0.26811408 0.5587,0.26551408 0.5587,0.26231408 L 0.5587,0.074814074 C 0.5587,0.071614074 0.5601,0.069114074 0.5617,0.069114074 L 0.5716,0.069114074 C 0.5732,0.069114074 0.5745,0.071614074 0.5745,0.074814074 C 0.5745,0.074814074 0.5745,0.11231408 0.5745,0.12751408 C 0.579,0.12191408 0.5846,0.11701408 0.5908,0.11701408 C 0.606,0.11701408 0.6224,0.14101408 0.6224,0.19381408 C 0.6224,0.25061408 0.6051,0.27071408 0.5903,0.27071408 C 0.585,0.27071408 0.5791,0.26611408 0.5745,0.25941408 z"
                           style="fill:none;stroke:#409629;stroke-width:0.0012;stroke-linecap:butt;stroke-linejoin:miter;stroke-miterlimit:4;stroke-dasharray:none;stroke-opacity:1"
                           id="path2536" /><path
                           d="M 0.6807,0.16221408 C 0.6766,0.14801408 0.6698,0.13911408 0.661,0.13911408 C 0.6493,0.13911408 0.64,0.16011408 0.64,0.19021408 L 0.6862,0.19021408 L 0.6862,0.20281408 C 0.6862,0.24651408 0.6739,0.26491408 0.6591,0.26491408 C 0.6416,0.26491408 0.6301,0.23811408 0.6301,0.19381408 C 0.6301,0.14381408 0.6452,0.12271408 0.661,0.12271408 C 0.6771,0.12271408 0.6837,0.13911408 0.6883,0.15461408 L 0.6807,0.16221408 M 0.6402,0.20651408 C 0.641,0.23181408 0.6475,0.24861408 0.6594,0.24861408 C 0.67,0.24861408 0.6763,0.23181408 0.6763,0.20651408 L 0.6402,0.20651408"
                           style="fill:#409629;fill-opacity:1;fill-rule:nonzero;stroke:none"
                           id="path2538" /><path
                           d="M 0.6807,0.16221408 C 0.6766,0.14801408 0.6698,0.13911408 0.661,0.13911408 C 0.6493,0.13911408 0.64,0.16011408 0.64,0.19021408 L 0.6862,0.19021408 L 0.6862,0.20281408 C 0.6862,0.24651408 0.6739,0.26491408 0.6591,0.26491408 C 0.6416,0.26491408 0.6301,0.23811408 0.6301,0.19381408 C 0.6301,0.14381408 0.6452,0.12271408 0.661,0.12271408 C 0.6771,0.12271408 0.6837,0.13911408 0.6883,0.15461408 L 0.6807,0.16221408 z M 0.6402,0.20651408 C 0.641,0.23181408 0.6475,0.24861408 0.6594,0.24861408 C 0.67,0.24861408 0.6763,0.23181408 0.6763,0.20651408 L 0.6402,0.20651408 z"
                           style="fill:none;stroke:#409629;stroke-width:0.0012;stroke-linecap:butt;stroke-linejoin:miter;stroke-miterlimit:4;stroke-dasharray:none;stroke-opacity:1"
                           id="path2540" /><path
                           d="M 0.6594,0.24281408 C 0.6673,0.24281408 0.6723,0.23151408 0.6732,0.21221408 C 0.6684,0.21221408 0.6485,0.21221408 0.6436,0.21221408 C 0.6446,0.22571408 0.6481,0.24281408 0.6594,0.24281408 M 0.6372,0.20681408 C 0.6372,0.20531408 0.6375,0.20371408 0.638,0.20251408 C 0.6386,0.20141408 0.6394,0.20071408 0.6402,0.20071408 L 0.6763,0.20071408 C 0.678,0.20071408 0.6793,0.20331408 0.6793,0.20651408 C 0.6793,0.23561408 0.6715,0.25441408 0.6594,0.25441408 C 0.6465,0.25441408 0.6382,0.23661408 0.6372,0.20681408"
                           style="fill:#409629;fill-opacity:1;fill-rule:nonzero;stroke:none"
                           id="path2542" /><path
                           d="M 0.6594,0.24281408 C 0.6673,0.24281408 0.6723,0.23151408 0.6732,0.21221408 C 0.6684,0.21221408 0.6485,0.21221408 0.6436,0.21221408 C 0.6446,0.22571408 0.6481,0.24281408 0.6594,0.24281408 z M 0.6372,0.20681408 C 0.6372,0.20531408 0.6375,0.20371408 0.638,0.20251408 C 0.6386,0.20141408 0.6394,0.20071408 0.6402,0.20071408 L 0.6763,0.20071408 C 0.678,0.20071408 0.6793,0.20331408 0.6793,0.20651408 C 0.6793,0.23561408 0.6715,0.25441408 0.6594,0.25441408 C 0.6465,0.25441408 0.6382,0.23661408 0.6372,0.20681408 z"
                           style="fill:none;stroke:#409629;stroke-width:0.0012;stroke-linecap:butt;stroke-linejoin:miter;stroke-miterlimit:4;stroke-dasharray:none;stroke-opacity:1"
                           id="path2544" /><path
                           d="M 0.6331,0.19381408 C 0.6331,0.23411408 0.6431,0.25921408 0.6591,0.25921408 C 0.6744,0.25921408 0.6832,0.23861408 0.6832,0.20281408 C 0.6832,0.20281408 0.6832,0.19931408 0.6832,0.19591408 C 0.6779,0.19591408 0.64,0.19591408 0.64,0.19591408 C 0.6383,0.19591408 0.637,0.19331408 0.637,0.19021408 C 0.637,0.15771408 0.6473,0.13331408 0.661,0.13331408 C 0.6696,0.13331408 0.6768,0.14091408 0.6817,0.15471408 C 0.6828,0.15371408 0.683,0.15341408 0.6841,0.15231408 C 0.68,0.14001408 0.674,0.12851408 0.661,0.12851408 C 0.6475,0.12851408 0.6331,0.14571408 0.6331,0.19381408 M 0.6271,0.19381408 C 0.6271,0.13711408 0.6454,0.11701408 0.661,0.11701408 C 0.6782,0.11701408 0.6858,0.13461408 0.6909,0.15171408 C 0.6913,0.15311408 0.6914,0.15471408 0.6912,0.15621408 C 0.691,0.15771408 0.6904,0.15901408 0.6897,0.15971408 L 0.6821,0.16741408 C 0.6806,0.16881408 0.6789,0.16781408 0.6781,0.16501408 C 0.6743,0.15201408 0.6683,0.14481408 0.661,0.14481408 C 0.6515,0.14481408 0.6442,0.16151408 0.6432,0.18441408 C 0.6487,0.18441408 0.6862,0.18441408 0.6862,0.18441408 C 0.6878,0.18441408 0.6892,0.18701408 0.6892,0.19021408 L 0.6892,0.20281408 C 0.6892,0.25291408 0.6736,0.27071408 0.6591,0.27071408 C 0.6397,0.27071408 0.6271,0.24051408 0.6271,0.19381408"
                           style="fill:#409629;fill-opacity:1;fill-rule:nonzero;stroke:none"
                           id="path2546" /><path
                           d="M 0.6331,0.19381408 C 0.6331,0.23411408 0.6431,0.25921408 0.6591,0.25921408 C 0.6744,0.25921408 0.6832,0.23861408 0.6832,0.20281408 C 0.6832,0.20281408 0.6832,0.19931408 0.6832,0.19591408 C 0.6779,0.19591408 0.64,0.19591408 0.64,0.19591408 C 0.6383,0.19591408 0.637,0.19331408 0.637,0.19021408 C 0.637,0.15771408 0.6473,0.13331408 0.661,0.13331408 C 0.6696,0.13331408 0.6768,0.14091408 0.6817,0.15471408 C 0.6828,0.15371408 0.683,0.15341408 0.6841,0.15231408 C 0.68,0.14001408 0.674,0.12851408 0.661,0.12851408 C 0.6475,0.12851408 0.6331,0.14571408 0.6331,0.19381408 z M 0.6271,0.19381408 C 0.6271,0.13711408 0.6454,0.11701408 0.661,0.11701408 C 0.6782,0.11701408 0.6858,0.13461408 0.6909,0.15171408 C 0.6913,0.15311408 0.6914,0.15471408 0.6912,0.15621408 C 0.691,0.15771408 0.6904,0.15901408 0.6897,0.15971408 L 0.6821,0.16741408 C 0.6806,0.16881408 0.6789,0.16781408 0.6781,0.16501408 C 0.6743,0.15201408 0.6683,0.14481408 0.661,0.14481408 C 0.6515,0.14481408 0.6442,0.16151408 0.6432,0.18441408 C 0.6487,0.18441408 0.6862,0.18441408 0.6862,0.18441408 C 0.6878,0.18441408 0.6892,0.18701408 0.6892,0.19021408 L 0.6892,0.20281408 C 0.6892,0.25291408 0.6736,0.27071408 0.6591,0.27071408 C 0.6397,0.27071408 0.6271,0.24051408 0.6271,0.19381408 z"
                           style="fill:none;stroke:#409629;stroke-width:0.0012;stroke-linecap:butt;stroke-linejoin:miter;stroke-miterlimit:4;stroke-dasharray:none;stroke-opacity:1"
                           id="path2548" /><path
                           d="M 0.7101,0.26231408 L 0.7101,0.24391408 L 0.7104,0.24391408 C 0.716,0.25601408 0.7233,0.26491408 0.7314,0.26491408 C 0.7419,0.26491408 0.7519,0.25441408 0.7519,0.22491408 L 0.7519,0.12541408 L 0.7421,0.12541408 L 0.7421,0.22441408 C 0.7421,0.24251408 0.7376,0.24861408 0.7304,0.24861408 C 0.7231,0.24861408 0.7146,0.23701408 0.7101,0.22781408 L 0.7101,0.12541408 L 0.7002,0.12541408 L 0.7002,0.26231408 L 0.7101,0.26231408"
                           style="fill:#409629;fill-opacity:1;fill-rule:nonzero;stroke:none"
                           id="path2550" /><path
                           d="M 0.7101,0.26231408 L 0.7101,0.24391408 L 0.7104,0.24391408 C 0.716,0.25601408 0.7233,0.26491408 0.7314,0.26491408 C 0.7419,0.26491408 0.7519,0.25441408 0.7519,0.22491408 L 0.7519,0.12541408 L 0.7421,0.12541408 L 0.7421,0.22441408 C 0.7421,0.24251408 0.7376,0.24861408 0.7304,0.24861408 C 0.7231,0.24861408 0.7146,0.23701408 0.7101,0.22781408 L 0.7101,0.12541408 L 0.7002,0.12541408 L 0.7002,0.26231408 L 0.7101,0.26231408 z"
                           style="fill:none;stroke:#409629;stroke-width:0.0012;stroke-linecap:butt;stroke-linejoin:miter;stroke-miterlimit:4;stroke-dasharray:none;stroke-opacity:1"
                           id="path2552" /><path
                           d="M 0.7104,0.23811408 C 0.7112,0.23811408 0.712,0.23881408 0.7126,0.24001408 C 0.7183,0.25241408 0.725,0.25921408 0.7314,0.25921408 C 0.7379,0.25921408 0.7489,0.25471408 0.7489,0.22491408 C 0.7489,0.22491408 0.7489,0.14141408 0.7489,0.13111408 C 0.7473,0.13111408 0.7467,0.13111408 0.745,0.13111408 C 0.745,0.14141408 0.745,0.22441408 0.745,0.22441408 C 0.745,0.24401408 0.74,0.25441408 0.7304,0.25441408 C 0.7214,0.25441408 0.712,0.24021408 0.7079,0.23181408 C 0.7074,0.23071408 0.7071,0.22931408 0.7071,0.22781408 C 0.7071,0.22781408 0.7071,0.14141408 0.7071,0.13111408 C 0.7055,0.13111408 0.7049,0.13111408 0.7032,0.13111408 C 0.7032,0.14121408 0.7032,0.24641408 0.7032,0.25651408 C 0.7049,0.25651408 0.7055,0.25651408 0.7071,0.25651408 C 0.7071,0.25111408 0.7071,0.24391408 0.7071,0.24391408 C 0.7071,0.24071408 0.7084,0.23811408 0.7101,0.23811408 L 0.7104,0.23811408 M 0.7131,0.25671408 C 0.7131,0.25911408 0.7131,0.26231408 0.7131,0.26231408 C 0.7131,0.26551408 0.7117,0.26811408 0.7101,0.26811408 L 0.7002,0.26811408 C 0.6986,0.26811408 0.6972,0.26551408 0.6972,0.26231408 L 0.6972,0.12541408 C 0.6972,0.12221408 0.6986,0.11961408 0.7002,0.11961408 L 0.7101,0.11961408 C 0.7117,0.11961408 0.7131,0.12221408 0.7131,0.12541408 C 0.7131,0.12541408 0.7131,0.22081408 0.7131,0.22541408 C 0.7177,0.23431408 0.7249,0.24281408 0.7304,0.24281408 C 0.7358,0.24281408 0.7391,0.23981408 0.7391,0.22441408 L 0.7391,0.12541408 C 0.7391,0.12221408 0.7404,0.11961408 0.7421,0.11961408 L 0.7519,0.11961408 C 0.7536,0.11961408 0.7549,0.12221408 0.7549,0.12541408 L 0.7549,0.22491408 C 0.7549,0.25871408 0.7428,0.27071408 0.7314,0.27071408 C 0.7251,0.27071408 0.7188,0.26571408 0.7131,0.25671408"
                           style="fill:#409629;fill-opacity:1;fill-rule:nonzero;stroke:none"
                           id="path2554" /><path
                           d="M 0.7104,0.23811408 C 0.7112,0.23811408 0.712,0.23881408 0.7126,0.24001408 C 0.7183,0.25241408 0.725,0.25921408 0.7314,0.25921408 C 0.7379,0.25921408 0.7489,0.25471408 0.7489,0.22491408 C 0.7489,0.22491408 0.7489,0.14141408 0.7489,0.13111408 C 0.7473,0.13111408 0.7467,0.13111408 0.745,0.13111408 C 0.745,0.14141408 0.745,0.22441408 0.745,0.22441408 C 0.745,0.24401408 0.74,0.25441408 0.7304,0.25441408 C 0.7214,0.25441408 0.712,0.24021408 0.7079,0.23181408 C 0.7074,0.23071408 0.7071,0.22931408 0.7071,0.22781408 C 0.7071,0.22781408 0.7071,0.14141408 0.7071,0.13111408 C 0.7055,0.13111408 0.7049,0.13111408 0.7032,0.13111408 C 0.7032,0.14121408 0.7032,0.24641408 0.7032,0.25651408 C 0.7049,0.25651408 0.7055,0.25651408 0.7071,0.25651408 C 0.7071,0.25111408 0.7071,0.24391408 0.7071,0.24391408 C 0.7071,0.24071408 0.7084,0.23811408 0.7101,0.23811408 L 0.7104,0.23811408 z M 0.7131,0.25671408 C 0.7131,0.25911408 0.7131,0.26231408 0.7131,0.26231408 C 0.7131,0.26551408 0.7117,0.26811408 0.7101,0.26811408 L 0.7002,0.26811408 C 0.6986,0.26811408 0.6972,0.26551408 0.6972,0.26231408 L 0.6972,0.12541408 C 0.6972,0.12221408 0.6986,0.11961408 0.7002,0.11961408 L 0.7101,0.11961408 C 0.7117,0.11961408 0.7131,0.12221408 0.7131,0.12541408 C 0.7131,0.12541408 0.7131,0.22081408 0.7131,0.22541408 C 0.7177,0.23431408 0.7249,0.24281408 0.7304,0.24281408 C 0.7358,0.24281408 0.7391,0.23981408 0.7391,0.22441408 L 0.7391,0.12541408 C 0.7391,0.12221408 0.7404,0.11961408 0.7421,0.11961408 L 0.7519,0.11961408 C 0.7536,0.11961408 0.7549,0.12221408 0.7549,0.12541408 L 0.7549,0.22491408 C 0.7549,0.25871408 0.7428,0.27071408 0.7314,0.27071408 C 0.7251,0.27071408 0.7188,0.26571408 0.7131,0.25671408 z"
                           style="fill:none;stroke:#409629;stroke-width:0.0012;stroke-linecap:butt;stroke-linejoin:miter;stroke-miterlimit:4;stroke-dasharray:none;stroke-opacity:1"
                           id="path2556" /><path
                           d="M 0.7745,0.26231408 L 0.7745,0.30711408 L 0.7828,0.30711408 L 0.7828,0.26231408 L 0.7983,0.26231408 L 0.7983,0.24961408 L 0.7828,0.24961408 L 0.7828,0.14931408 C 0.7828,0.14011408 0.7849,0.13541408 0.79,0.13541408 C 0.7927,0.13541408 0.7957,0.13671408 0.7983,0.13831408 L 0.7983,0.12511408 C 0.7956,0.12431408 0.7927,0.12271408 0.79,0.12271408 C 0.7784,0.12271408 0.7745,0.13011408 0.7745,0.14671408 L 0.7745,0.24961408 L 0.7639,0.24961408 L 0.7639,0.26231408 L 0.7745,0.26231408"
                           style="fill:#fdd005;fill-opacity:1;fill-rule:nonzero;stroke:none"
                           id="path2558" /><path
                           d="M 0.7811,0.30391408 C 0.7811,0.29831408 0.7811,0.26231408 0.7811,0.26231408 C 0.7811,0.26051408 0.7818,0.25911408 0.7828,0.25911408 C 0.7828,0.25911408 0.794,0.25911408 0.7967,0.25911408 C 0.7967,0.25671408 0.7967,0.25521408 0.7967,0.25291408 C 0.794,0.25291408 0.7828,0.25291408 0.7828,0.25291408 C 0.7818,0.25291408 0.7811,0.25141408 0.7811,0.24961408 L 0.7811,0.14931408 C 0.7811,0.13811408 0.7842,0.13221408 0.79,0.13221408 C 0.792,0.13221408 0.7942,0.13301408 0.7967,0.13421408 C 0.7967,0.13141408 0.7967,0.12991408 0.7967,0.12781408 C 0.796,0.12761408 0.7953,0.12731408 0.7953,0.12731408 C 0.7935,0.12661408 0.7917,0.12601408 0.79,0.12601408 C 0.7784,0.12601408 0.7762,0.13321408 0.7762,0.14671408 L 0.7762,0.24961408 C 0.7762,0.25141408 0.7755,0.25291408 0.7745,0.25291408 C 0.7745,0.25291408 0.7679,0.25291408 0.7655,0.25291408 C 0.7655,0.25521408 0.7655,0.25671408 0.7655,0.25911408 C 0.7679,0.25911408 0.7745,0.25911408 0.7745,0.25911408 C 0.7755,0.25911408 0.7762,0.26051408 0.7762,0.26231408 C 0.7762,0.26231408 0.7762,0.29831408 0.7762,0.30391408 C 0.7778,0.30391408 0.7795,0.30391408 0.7811,0.30391408 M 0.7745,0.31031408 C 0.7736,0.31031408 0.7729,0.30881408 0.7729,0.30711408 C 0.7729,0.30711408 0.7729,0.27101408 0.7729,0.26551408 C 0.7705,0.26551408 0.7639,0.26551408 0.7639,0.26551408 C 0.763,0.26551408 0.7622,0.26411408 0.7622,0.26231408 L 0.7622,0.24961408 C 0.7622,0.24791408 0.763,0.24651408 0.7639,0.24651408 C 0.7639,0.24651408 0.7705,0.24651408 0.7729,0.24651408 C 0.7729,0.24051408 0.7729,0.14671408 0.7729,0.14671408 C 0.7729,0.12771408 0.778,0.11951408 0.79,0.11951408 C 0.792,0.11951408 0.794,0.12031408 0.796,0.12101408 L 0.7986,0.12201408 C 0.7994,0.12221408 0.8,0.12361408 0.8,0.12511408 L 0.8,0.13831408 C 0.8,0.13931408 0.7997,0.14031408 0.7993,0.14091408 C 0.7989,0.14151408 0.7983,0.14171408 0.7978,0.14131408 C 0.7949,0.13951408 0.7922,0.13861408 0.79,0.13861408 C 0.786,0.13861408 0.7844,0.14161408 0.7844,0.14931408 C 0.7844,0.14931408 0.7844,0.24051408 0.7844,0.24651408 C 0.7871,0.24651408 0.7983,0.24651408 0.7983,0.24651408 C 0.7993,0.24651408 0.8,0.24791408 0.8,0.24961408 L 0.8,0.26231408 C 0.8,0.26411408 0.7993,0.26551408 0.7983,0.26551408 C 0.7983,0.26551408 0.7871,0.26551408 0.7844,0.26551408 C 0.7844,0.27101408 0.7844,0.30711408 0.7844,0.30711408 C 0.7844,0.30881408 0.7837,0.31031408 0.7828,0.31031408 L 0.7745,0.31031408"
                           style="fill:#fdd005;fill-opacity:1;fill-rule:nonzero;stroke:none"
                           id="path2560" /><path
                           d="M 0.8634,0.19331408 C 0.8634,0.23571408 0.8542,0.26491408 0.8349,0.26491408 C 0.8169,0.26491408 0.8057,0.23621408 0.8057,0.19381408 C 0.8057,0.14571408 0.8174,0.12271408 0.836,0.12271408 C 0.8495,0.12271408 0.8565,0.13201408 0.8642,0.15621408 L 0.8575,0.16301408 C 0.8504,0.14141408 0.8459,0.13541408 0.8367,0.13541408 C 0.8206,0.13541408 0.8139,0.16221408 0.8139,0.19331408 L 0.8634,0.19331408 M 0.8139,0.20591408 C 0.814,0.22411408 0.8202,0.25251408 0.8347,0.25231408 C 0.8471,0.25201408 0.8535,0.23411408 0.8552,0.20591408 L 0.8139,0.20591408"
                           style="fill:#fdd005;fill-opacity:1;fill-rule:nonzero;stroke:none"
                           id="path2562" /><path
                           d="M 0.8346,0.24911408 C 0.845,0.24891408 0.8512,0.23531408 0.8532,0.20911408 C 0.8498,0.20911408 0.8188,0.20911408 0.8157,0.20911408 C 0.8164,0.22411408 0.8214,0.24931408 0.8346,0.24911408 M 0.8122,0.20601408 C 0.8122,0.20511408 0.8124,0.20431408 0.8127,0.20371408 C 0.813,0.20311408 0.8134,0.20271408 0.8139,0.20271408 L 0.8552,0.20271408 C 0.8556,0.20271408 0.8561,0.20311408 0.8564,0.20381408 C 0.8567,0.20451408 0.8569,0.20541408 0.8568,0.20631408 C 0.8549,0.23821408 0.8473,0.25521408 0.8347,0.25551408 C 0.8194,0.25581408 0.8124,0.22671408 0.8122,0.20601408"
                           style="fill:#fdd005;fill-opacity:1;fill-rule:nonzero;stroke:none"
                           id="path2564" /><path
                           d="M 0.8073,0.19381408 C 0.8073,0.23511408 0.8182,0.26171408 0.8349,0.26171408 C 0.8515,0.26171408 0.8611,0.23791408 0.8616,0.19651408 C 0.8583,0.19651408 0.8139,0.19651408 0.8139,0.19651408 C 0.8129,0.19651408 0.8122,0.19511408 0.8122,0.19331408 C 0.8122,0.15561408 0.8216,0.13221408 0.8367,0.13221408 C 0.8461,0.13221408 0.8511,0.13841408 0.858,0.15891408 C 0.8592,0.15761408 0.8604,0.15641408 0.8618,0.15501408 C 0.8546,0.13321408 0.8481,0.12601408 0.836,0.12601408 C 0.8172,0.12601408 0.8073,0.14941408 0.8073,0.19381408 M 0.804,0.19381408 C 0.804,0.14591408 0.8154,0.11951408 0.836,0.11951408 C 0.8497,0.11951408 0.8574,0.12871408 0.8656,0.15451408 C 0.8658,0.15531408 0.8659,0.15621408 0.8658,0.15701408 C 0.8657,0.15791408 0.8654,0.15861408 0.8649,0.15901408 L 0.8583,0.16591408 C 0.8575,0.16661408 0.8565,0.16611408 0.8561,0.16471408 C 0.8492,0.14401408 0.8453,0.13861408 0.8367,0.13861408 C 0.8185,0.13861408 0.8158,0.17471408 0.8156,0.19011408 C 0.8187,0.19011408 0.8634,0.19011408 0.8634,0.19011408 C 0.8643,0.19011408 0.865,0.19151408 0.865,0.19331408 C 0.865,0.24091408 0.8541,0.26811408 0.8349,0.26811408 C 0.8161,0.26811408 0.804,0.23901408 0.804,0.19381408"
                           style="fill:#fdd005;fill-opacity:1;fill-rule:nonzero;stroke:none"
                           id="path2566" /><path
                           d="M 0.9238,0.22391408 C 0.9201,0.23961408 0.9148,0.25231408 0.9053,0.25231408 C 0.8919,0.25231408 0.8829,0.23621408 0.8829,0.19381408 C 0.8829,0.15881408 0.8911,0.13541408 0.9053,0.13541408 C 0.9155,0.13541408 0.9209,0.14621408 0.9267,0.16381408 L 0.9332,0.15781408 C 0.9272,0.13831408 0.9189,0.12271408 0.9053,0.12271408 C 0.8854,0.12271408 0.8747,0.15251408 0.8747,0.19381408 C 0.8747,0.24101408 0.887,0.26491408 0.9053,0.26491408 C 0.9187,0.26491408 0.9271,0.25041408 0.9313,0.22781408 L 0.9238,0.22391408"
                           style="fill:#fdd005;fill-opacity:1;fill-rule:nonzero;stroke:none"
                           id="path2568" /><path
                           d="M 0.8764,0.19381408 C 0.8764,0.23701408 0.8869,0.26171408 0.9053,0.26171408 C 0.9166,0.26171408 0.9245,0.25091408 0.929,0.22991408 C 0.9274,0.22911408 0.926,0.22831408 0.9247,0.22761408 C 0.9215,0.24031408 0.9162,0.25551408 0.9053,0.25551408 C 0.8943,0.25551408 0.8813,0.24481408 0.8813,0.19381408 C 0.8813,0.15581408 0.8905,0.13221408 0.9053,0.13221408 C 0.9157,0.13221408 0.9215,0.14271408 0.9272,0.15971408 C 0.9284,0.15871408 0.9294,0.15771408 0.9308,0.15651408 C 0.924,0.13571408 0.9158,0.12601408 0.9053,0.12601408 C 0.8875,0.12601408 0.8764,0.15201408 0.8764,0.19381408 M 0.8731,0.19381408 C 0.8731,0.14801408 0.8854,0.11951408 0.9053,0.11951408 C 0.9175,0.11951408 0.9271,0.13151408 0.9346,0.15611408 C 0.9349,0.15691408 0.9349,0.15781408 0.9348,0.15871408 C 0.9347,0.15951408 0.9344,0.16031408 0.9339,0.16061408 L 0.9274,0.16671408 C 0.9266,0.16741408 0.9257,0.16691408 0.9252,0.16551408 C 0.9197,0.14851408 0.9147,0.13861408 0.9053,0.13861408 C 0.8925,0.13861408 0.8846,0.15981408 0.8846,0.19381408 C 0.8846,0.23101408 0.8914,0.24911408 0.9053,0.24911408 C 0.9128,0.24911408 0.918,0.24091408 0.9223,0.22251408 C 0.9226,0.22111408 0.9234,0.22031408 0.9242,0.22081408 L 0.9317,0.22471408 C 0.9322,0.22501408 0.9326,0.22551408 0.9328,0.22631408 C 0.933,0.22711408 0.933,0.22811408 0.9329,0.22891408 C 0.9281,0.25461408 0.9185,0.26811408 0.9053,0.26811408 C 0.8851,0.26811408 0.8731,0.24031408 0.8731,0.19381408"
                           style="fill:#fdd005;fill-opacity:1;fill-rule:nonzero;stroke:none"
                           id="path2570" /><path
                           d="M 0.9434,0.12541408 L 0.9434,0.31551408 L 0.9516,0.31551408 L 0.9516,0.24071408 C 0.9592,0.25601408 0.9655,0.26491408 0.9759,0.26491408 C 0.9907,0.26491408 0.99700001,0.24861408 0.99700001,0.21881408 L 0.99700001,0.12541408 L 0.9888,0.12541408 L 0.9888,0.21731408 C 0.9888,0.23991408 0.9852,0.25231408 0.9743,0.25231408 C 0.9655,0.25231408 0.9606,0.24201408 0.9516,0.22621408 L 0.9516,0.12541408 L 0.9434,0.12541408"
                           style="fill:#fdd005;fill-opacity:1;fill-rule:nonzero;stroke:none"
                           id="path2572" /><path
                           d="M 0.9499,0.31231408 C 0.9499,0.30641408 0.9499,0.24071408 0.9499,0.24071408 C 0.9499,0.23941408 0.9503,0.23821408 0.951,0.23771408 C 0.9516,0.23721408 0.9523,0.23751408 0.9528,0.23851408 C 0.9603,0.25361408 0.9663,0.26171408 0.9759,0.26171408 C 0.9891,0.26171408 0.99530002,0.24811408 0.99530002,0.21881408 C 0.99530002,0.21881408 0.99530002,0.13461408 0.99530002,0.12861408 C 0.99370002,0.12861408 0.992,0.12861408 0.9904,0.12861408 C 0.9904,0.13451408 0.9904,0.21731408 0.9904,0.21731408 C 0.9904,0.23511408 0.9886,0.25551408 0.9743,0.25551408 C 0.9657,0.25551408 0.9606,0.24651408 0.9528,0.23281408 L 0.9505,0.22861408 C 0.9501,0.22801408 0.9499,0.22711408 0.9499,0.22621408 C 0.9499,0.22621408 0.9499,0.13461408 0.9499,0.12861408 C 0.9483,0.12861408 0.9466,0.12861408 0.945,0.12861408 C 0.945,0.13471408 0.945,0.30621408 0.945,0.31231408 C 0.9466,0.31231408 0.9483,0.31231408 0.9499,0.31231408 M 0.9434,0.31871408 C 0.9425,0.31871408 0.9417,0.31721408 0.9417,0.31551408 L 0.9417,0.12541408 C 0.9417,0.12361408 0.9425,0.12221408 0.9434,0.12221408 L 0.9516,0.12221408 C 0.9525,0.12221408 0.9532,0.12361408 0.9532,0.12541408 C 0.9532,0.12541408 0.9532,0.22211408 0.9532,0.22481408 C 0.9539,0.22601408 0.9551,0.22811408 0.9551,0.22811408 C 0.9625,0.24121408 0.967,0.24911408 0.9743,0.24911408 C 0.9835,0.24911408 0.9871,0.24021408 0.9871,0.21731408 L 0.9871,0.12541408 C 0.9871,0.12361408 0.9878,0.12221408 0.9888,0.12221408 L 0.99700001,0.12221408 C 0.99790001,0.12221408 0.99860001,0.12361408 0.99860001,0.12541408 L 0.99860001,0.21881408 C 0.99860001,0.25161408 0.991,0.26811408 0.9759,0.26811408 C 0.9664,0.26811408 0.9601,0.26101408 0.9532,0.24841408 C 0.9532,0.26081408 0.9532,0.31551408 0.9532,0.31551408 C 0.9532,0.31721408 0.9525,0.31871408 0.9516,0.31871408 L 0.9434,0.31871408"
                           style="fill:#fdd005;fill-opacity:1;fill-rule:nonzero;stroke:none"
                           id="path2574" /><path
                           d="M 0.398,0.11861408 L 0.4003,0.12951408 L 0.4017,0.12951408 L 0.4017,0.11591408 L 0.4009,0.11591408 L 0.4009,0.12811408 L 0.4008,0.12811408 L 0.3983,0.11591408 L 0.3977,0.11591408 L 0.3952,0.12811408 L 0.3951,0.12811408 L 0.3951,0.11591408 L 0.3943,0.11591408 L 0.3943,0.12951408 L 0.3957,0.12951408 L 0.398,0.11861408 M 0.393,0.12811408 L 0.3907,0.12811408 L 0.3907,0.11591408 L 0.3898,0.11591408 L 0.3898,0.12811408 L 0.3875,0.12811408 L 0.3875,0.12951408 L 0.393,0.12951408 L 0.393,0.12811408"
                           style="fill:#fdd005;fill-opacity:1;fill-rule:nonzero;stroke:none"
                           id="path2576" /></g></g></g></g></g></g></g></g></g></g></g></svg>